<?xml version="1.0" encoding="utf-8"?>
<!-- Generator: Adobe Illustrator 22.1.0, SVG Export Plug-In . SVG Version: 6.00 Build 0)  -->
<svg version="1.1" id="Layer_1" xmlns="http://www.w3.org/2000/svg" xmlns:xlink="http://www.w3.org/1999/xlink" x="0px" y="0px"
	 viewBox="0 0 33.6 32" style="enable-background:new 0 0 33.6 32;" xml:space="preserve">
<style type="text/css">
	.st0{fill:#313435;}
</style>
<title>Asset 2</title>
<g id="Layer_2_1_">
	<g id="Layer_3">
		<path class="st0" d="M0,10.1L10.1,0l1.8,1.8L4.8,8.8h0.4l16.7,0.1c2.7,0,5.4,0.9,7.5,2.6c2.3,1.8,3.7,4.4,4.1,7.3
			c0.6,3.6-0.6,7.3-3.2,9.8c-1.7,1.8-4,3-6.5,3.3c-0.6,0.1-1.2,0.1-1.8,0.1H0v-2.5h21.8c3.1,0.1,5.9-1.4,7.6-3.9
			c1.1-1.6,1.7-3.5,1.6-5.5c-0.1-2.5-1.2-4.9-3.2-6.5c-1.5-1.3-3.3-2.1-5.3-2.1c-5.8-0.1-11.7-0.1-17.5-0.1H4.9l7.2,7.2l-1.9,1.9
			c0-0.1-0.1-0.2-0.2-0.3l-9.7-9.7C0.2,10.3,0.1,10.2,0,10.1C0,10.2,0,10.1,0,10.1z"/>
	</g>
</g>
</svg>
