<?xml version="1.0" encoding="utf-8"?>
<!-- Generator: Adobe Illustrator 22.1.0, SVG Export Plug-In . SVG Version: 6.00 Build 0)  -->
<svg version="1.1" id="Layer_1" xmlns="http://www.w3.org/2000/svg" xmlns:xlink="http://www.w3.org/1999/xlink" x="0px" y="0px"
	 viewBox="0 0 57.4 54.5" style="enable-background:new 0 0 57.4 54.5;" xml:space="preserve">
<style type="text/css">
	.st0{fill:#FFFFFF;stroke:#313435;stroke-miterlimit:10;}
</style>
<title>Asset 3</title>
<g id="Layer_2_1_">
	<g id="Menu_hover">
		<path class="st0" d="M35.8,28.9l-5.9,6.4h-9.6V46l-4.8-1.6L14.9,47l-3.8,1.1v3.2L9.6,54H2.1l-1.6-1.6v-3.8l27.8-28.4 M35.7,29
			c2,1,4.2,1.5,6.4,1.5c8.2-0.1,14.8-6.8,14.7-15c0,0,0,0,0,0c0.2-8.1-6.2-14.9-14.3-15.1S27.7,6.6,27.4,14.7c0,0.3,0,0.5,0,0.8
			c0,1.7,0.3,3.3,0.8,4.9"/>
		<circle class="st0" cx="46.5" cy="10.1" r="3.8"/>
	</g>
</g>
</svg>
