<?xml version="1.0" encoding="utf-8"?>
<!-- Generator: Adobe Illustrator 22.1.0, SVG Export Plug-In . SVG Version: 6.00 Build 0)  -->
<svg version="1.1" id="Layer_1" xmlns="http://www.w3.org/2000/svg" xmlns:xlink="http://www.w3.org/1999/xlink" x="0px" y="0px"
	 viewBox="0 0 75 78" style="enable-background:new 0 0 75 78;" xml:space="preserve">
<style type="text/css">
	.st0{fill:#313435;}
	.st1{fill:none;stroke:#313435;stroke-miterlimit:10;}
</style>
<title>Fullscr_dark</title>
<path class="st0" d="M66.7,70.2c-0.3,0-0.6-0.1-0.8-0.4l-9.9-10l-2.6-2.6l-2.1-2l-0.9-0.9l-4-4.2v6.3V60c0,2.1,0,4.2,0,6.3
	c0,0.5-0.3,1-0.8,1.2c-0.1,0-0.3,0.1-0.4,0.1c-0.3,0-0.7-0.1-0.9-0.4c-0.1-0.2-0.2-0.5-0.3-0.8c0-6.3,0-12.6,0-19.1
	c0-0.6,0.4-1,1-1.1h9.5h9.8c0.3,0,0.5,0.1,0.7,0.3c0.2,0.2,0.4,0.5,0.4,0.9c0,0.7-0.5,1.2-1.1,1.2c-0.6,0-1.2,0.1-1.8,0.1
	c-0.8,0-1.7,0.1-2.5,0.1H48.6l4.5,4.8c0.1,0.2,0.3,0.2,0.4,0.3l6,6c2.7,2.7,5.4,5.4,8,8c0.4,0.3,0.5,0.8,0.4,1.3
	c-0.1,0.4-0.4,0.7-0.8,0.8C66.9,70.1,66.8,70.2,66.7,70.2z"/>
<path class="st0" d="M19,31.4H9.7c-0.3,0-0.6-0.2-0.8-0.4c-0.2-0.2-0.4-0.5-0.4-0.9c0-0.6,0.6-1.1,1.2-1.1h4h12.1l-5-4.9
	c-0.2-0.2-0.3-0.3-0.4-0.5l-1.8-1.8L6.3,9.6C5.9,9.3,5.7,8.7,5.9,8.2C6,7.8,6.3,7.5,6.8,7.4c0.1,0,0.3,0,0.4-0.1
	c0.3,0,0.5,0.1,0.7,0.3c3.7,3.7,7.4,7.4,11.1,11.1l3.4,3.4c0.1,0.1,0.3,0.3,0.4,0.4l0.2,0.2l4.6,4.2v-9.3c0-2.2,0-4.3,0-6.3
	c0-0.6,0.5-1.2,1.1-1.2c0.2,0,0.3,0,0.5,0.1c0.6,0.3,0.8,0.6,0.8,1c0,5.8,0,12.1,0,19.1c0,0.6-0.5,1.1-1.1,1.1L19,31.4z"/>
<rect x="0.5" y="0.5" class="st1" width="74" height="77"/>
</svg>
