<?xml version="1.0" encoding="utf-8"?>
<!-- Generator: Adobe Illustrator 22.1.0, SVG Export Plug-In . SVG Version: 6.00 Build 0)  -->
<svg version="1.1" id="Layer_1" xmlns="http://www.w3.org/2000/svg" xmlns:xlink="http://www.w3.org/1999/xlink" x="0px" y="0px"
	 viewBox="0 0 609 430.9" style="enable-background:new 0 0 609 430.9;" xml:space="preserve">
<style type="text/css">
	.st0{opacity:0.9;fill:#FFFFFF;stroke:#CED4DA;stroke-linecap:round;stroke-linejoin:round;enable-background:new    ;}
	.st1{fill:#4D4D4D;}
	.st2{font-family:'ArialMT';}
	.st3{font-size:36px;}
	.st4{letter-spacing:28;}
	.st5{fill:#313435;}
	.st6{font-family:'Hind-Regular';}
	.st7{font-size:18px;}
	.st8{fill:#FFFFFF;stroke:#72777A;stroke-miterlimit:10;}
	.st9{fill:#FFFFFF;stroke:#72777A;stroke-linecap:round;stroke-linejoin:round;}
	.st10{fill:#FFFFFF;}
	.st11{fill:none;stroke:#72777A;stroke-miterlimit:10;}
</style>
<title>Asset 5</title>
<rect x="0.5" y="0.5" class="st0" width="608" height="349"/>
<text transform="matrix(1 0 0 1 21.72 59.56)" class="st1 st2 st3 st4">      </text>
<text transform="matrix(1 0 0 1 21.72 102.76)" class="st1 st2 st3 st4">      </text>
<text transform="matrix(1 0 0 1 237.72 102.76)" class="st5 st6 st3">PDF Creator</text>
<text transform="matrix(1 0 0 1 21.72 189.16)" class="st5 st6 st7">Create custom PDF’s of images you’ve selected.</text>
<text transform="matrix(1 0 0 1 21.72 232.36)" class="st5 st6 st7">Simply select the images you want to include by clicking the check box </text>
<text transform="matrix(1 0 0 1 21.72 253.96)" class="st5 st6 st7">above the create PDF icon, the image will then be saved to your own PDF. </text>
<text transform="matrix(1 0 0 1 21.72 297.16)" class="st5 st6 st7">When finished selecting press the download PDF icon to create the file.</text>
<polygon class="st8" points="151.5,69.4 151.5,133.5 77.5,133.5 77.5,47.5 127.8,47.5 "/>
<rect x="106.5" y="86.5" class="st9" width="15" height="10"/>
<rect x="126.5" y="86.5" class="st9" width="15" height="10"/>
<rect x="48.5" y="71.5" class="st9" width="15" height="10"/>
<rect x="106.5" y="71.5" class="st9" width="15" height="10"/>
<rect x="68.5" y="86.5" class="st9" width="15" height="10"/>
<rect x="86.5" y="101.5" class="st9" width="15" height="10"/>
<rect x="126.5" y="101.5" class="st9" width="15" height="10"/>
<text transform="matrix(1 0 0 1 144.01 52.78)" class="st10 st2 st7">2</text>
<text transform="matrix(1 0 0 1 144.01 52.78)" class="st11 st2 st7">2</text>
</svg>
