<?xml version="1.0" encoding="utf-8"?>
<!-- Generator: Adobe Illustrator 22.1.0, SVG Export Plug-In . SVG Version: 6.00 Build 0)  -->
<svg version="1.1" id="Layer_1" xmlns="http://www.w3.org/2000/svg" xmlns:xlink="http://www.w3.org/1999/xlink" x="0px" y="0px"
	 viewBox="0 0 33 29.3" style="enable-background:new 0 0 33 29.3;" xml:space="preserve">
<style type="text/css">
	.st0{fill:#72777A;}
</style>
<title>Next_light</title>
<g id="Layer_2_1_">
	<g id="Layer_1-2">
		<path class="st0" d="M25.8,22.4c-2.2,2.2-4.4,4.4-6.6,6.6c-0.2,0.2-0.5,0.3-0.8,0.3c-0.3,0-0.6-0.1-0.9-0.4
			c-0.5-0.5-0.5-1.2,0-1.7c0,0,0,0,0,0l2.8-2.8l8.6-8.6l-7,0.1h-0.6H1.4c-0.5,0.1-1-0.2-1.2-0.6c-0.6,0-1-0.1-1-0.6s0.4-1,1-1
			c0,0,0,0,0,0.4c0.1-0.1,0.2-0.2,0.2-0.3c0.2-0.2,0.4-0.3,0.7-0.2c5.2,0,10.4,0,15.7,0h4.8c0.2,0,0.4,0,0.6,0h0.3l6.2-0.3L22,6.5
			c-1.5-1.5-3-3-4.5-4.5c-0.4-0.5-0.4-1.2,0-1.7c0.1-0.1,0.3-0.2,0.5-0.3c0.4-0.3,1-0.2,1.3,0.2c4.1,4.1,8.5,8.5,13.5,13.5
			c0.4,0.4,0.4,1.1,0,1.5C30.5,17.7,28.1,20,25.8,22.4z"/>
	</g>
</g>
</svg>
