<?xml version="1.0" encoding="utf-8"?>
<!-- Generator: Adobe Illustrator 22.1.0, SVG Export Plug-In . SVG Version: 6.00 Build 0)  -->
<svg version="1.1" id="Layer_1" xmlns="http://www.w3.org/2000/svg" xmlns:xlink="http://www.w3.org/1999/xlink" x="0px" y="0px"
	 viewBox="0 0 34 30.3" style="enable-background:new 0 0 34 30.3;" xml:space="preserve">
<style type="text/css">
	.st0{fill:#313435;stroke:#313435;stroke-miterlimit:10;}
</style>
<title>Next_dark</title>
<g id="Layer_2_1_">
	<g id="Layer_1-2">
		<path class="st0" d="M29.5,16.3c-5.8,0-21.7,0.1-27.5,0.1c-0.5,0.1-1-0.2-1.2-0.6c-0.3-0.4-0.3-0.8,0-1.2c0.1-0.1,0.2-0.2,0.3-0.3
			C1.2,14.1,1.4,14,1.6,14c5.2,0,22.5-0.1,27.7-0.2"/>
		<path class="st0" d="M29.3,13.8L22.5,7c-1.5-1.5-3-3-4.5-4.5c-0.4-0.4-0.5-1.2-0.1-1.6c0.1-0.1,0.3-0.2,0.4-0.3
			c0.4-0.3,1-0.2,1.3,0.2c4.1,4.1,8.5,8.5,13.5,13.5c0.4,0.4,0.4,1.1,0,1.5c-2.3,2.3-4.6,4.7-7,7c-2.2,2.2-4.4,4.4-6.6,6.6
			c-0.2,0.2-0.5,0.3-0.8,0.3c-0.3,0-0.6-0.1-0.9-0.4c-0.5-0.5-0.5-1.2,0-1.7c0,0,0,0,0,0l2.8-2.8l8.6-8.6"/>
	</g>
</g>
</svg>
