<?xml version="1.0" encoding="utf-8"?>
<!-- Generator: Adobe Illustrator 22.1.0, SVG Export Plug-In . SVG Version: 6.00 Build 0)  -->
<svg version="1.1" id="Layer_1" xmlns="http://www.w3.org/2000/svg" xmlns:xlink="http://www.w3.org/1999/xlink" x="0px" y="0px"
	 viewBox="0 0 88.4 63" style="enable-background:new 0 0 88.4 63;" xml:space="preserve">
<style type="text/css">
	.st0{fill:none;stroke:#313435;stroke-linecap:round;stroke-linejoin:round;}
	.st1{fill:none;stroke:#313435;stroke-linecap:round;stroke-linejoin:round;stroke-dasharray:12.79,12.79;}
	.st2{fill:none;stroke:#313435;stroke-linecap:round;stroke-linejoin:round;stroke-dasharray:14.11,14.11;}
	.st3{fill:none;stroke:#313435;stroke-linecap:round;stroke-linejoin:round;stroke-dasharray:12,12;}
	.st4{fill:none;stroke:#313435;stroke-linecap:round;stroke-linejoin:round;stroke-dasharray:10,10;}
	.st5{fill:#FFFFFF;stroke:#313435;stroke-linecap:round;stroke-linejoin:round;}
</style>
<title>Portfolio_dark</title>
<g id="Layer_2_1_">
	<g id="Layer_1-2">
		<polyline class="st0" points="0.6,7 0.6,0.5 6.1,0.5 		"/>
		<path class="st1" d="M19.1,0.5H27c0,0,7.1,6,8.2,6.8c1.3,1,0.7,0.9,3.3,0.9h22.8"/>
		<polyline class="st0" points="68.1,8.5 73.6,8.5 73.6,14 		"/>
		<line class="st2" x1="73.8" y1="28.3" x2="73.8" y2="49.5"/>
		<polyline class="st0" points="73.6,57 73.6,62.5 68.1,62.5 		"/>
		<line class="st3" x1="55.1" y1="62.5" x2="13.1" y2="62.5"/>
		<polyline class="st0" points="6.1,62.5 0.6,62.5 0.6,57 		"/>
		<line class="st4" x1="0.6" y1="47" x2="0.6" y2="12"/>
		<path class="st5" d="M16.7,9.5h26.4c0,0,5.5,5.2,6.4,5.9c1,0.8,0.4,0.8,3.1,0.8h35.3L73.7,62.5H0.5L16.7,9.5z"/>
	</g>
</g>
</svg>
