<?xml version="1.0" encoding="utf-8"?>
<!-- Generator: Adobe Illustrator 22.1.0, SVG Export Plug-In . SVG Version: 6.00 Build 0)  -->
<svg version="1.1" id="Layer_1" xmlns="http://www.w3.org/2000/svg" xmlns:xlink="http://www.w3.org/1999/xlink" x="0px" y="0px"
	 viewBox="0 0 58.2 63.4" style="enable-background:new 0 0 58.2 63.4;" xml:space="preserve">
<style type="text/css">
	.st0{fill:none;stroke:#72777A;stroke-linecap:round;stroke-linejoin:round;}
</style>
<title>About_light</title>
<g id="Layer_2_1_">
	<g id="Layer_1-2">
		<path class="st0" d="M42.8,36.9c2.1,0.1,4.2-0.2,6.3-0.8c1.8-0.5,3.4-1.5,4.6-2.9c0.4-0.4,0.9-0.8,1.3-1.2s0.2-1,0.4-1.4
			c0.6-1,1.1-2.1,1.4-3.3c0.7-2.3,1-4.8,0.8-7.2c-0.1-2.9-1.2-5.7-3.1-7.9c-1.5-1.8-3.5-3.1-5.7-3.7c-0.1,0-0.3,0-0.4-0.1
			c-0.6-0.1-1.2-0.5-1.5-1.1c-1.5-3-4.2-5.3-7.5-6.2c-2-0.6-4.1-0.9-6.2-0.7c-1.1,0-2.2,0.5-2.9,1.4c-0.3,0.4-0.7,0.8-1.1,1.1
			c-0.2,0.1-0.3,0.3-0.3,0.6c0,0.1,0,0.2,0,0.3c0,18.6,0,37.1,0,55.7c0,0.4-0.1,0.7-0.4,0.9c-0.4,0.3-0.8,0.6-1.1,1
			c-0.9,1-2.2,1.5-3.6,1.5c-1.5,0.1-3.1-0.1-4.6-0.5c-1.8-0.4-3.3-1.7-4.1-3.3c-0.7-1.4-0.7-1.3-2.2-1.5c-2.9-0.3-5.5-2.1-6.8-4.7
			c-0.7-1.4-0.8-3.1-0.3-4.6l0.3-1c0.4-1.2,0.4-1-0.6-1.7c-1.4-0.7-2.6-1.7-3.6-2.9c-1.1-1.6-1.6-3.5-1.5-5.4
			c0.1-1.7,0.7-3.4,1.7-4.8c0.3-0.4,0.6-0.9,0.8-1.5"/>
		<path class="st0" d="M29.1,3.3c-0.5-0.3-1-0.8-1.3-1.3c-0.8-0.9-2-1.5-3.2-1.5c-2.3-0.2-4.6,0.2-6.7,1c-3,1-5.5,3.3-6.8,6.2
			c-0.2,0.5-0.7,0.8-1.2,0.8C7,9.1,4.6,10.8,3,13.2c-1.2,1.6-1.9,3.5-2.3,5.4c-0.3,1.8-0.3,3.6-0.1,5.3c0.3,1.9,0.8,3.8,1.4,5.6
			c0,0.1,0,0.1,0.1,0.2c0.6,1.4,1.1,1.6,2.3,0.7c0.9-0.7,1.9-1.3,2.9-1.8c1.7-0.7,3.5-0.9,5.3-0.6c1.9,0.2,3.6,0.8,5.2,1.9
			c0.3,0.2,0.7,0.4,0.9,0.8"/>
		<path class="st0" d="M36.9,46.1c-0.1,1.5,0,3,0.4,4.4c0.6,2.2,2.1,4,4.2,5c0.5,0.2,0.9,0.5,1.3,0.8c0.3,0.1,0.5,0.5,0.3,0.8
			c0,0,0,0,0,0c-0.5,1.5-1.4,2.8-2.7,3.7c-1.9,1.5-4.4,2.2-6.8,2c-1.1-0.1-2.2-0.6-3-1.4c-0.4-0.5-1-1-1.5-1.3"/>
		<path class="st0" d="M55.2,32.1c1.3,0.9,2.1,2.3,2.3,3.9c0.6,2.6-0.1,5.3-1.9,7.3c-0.8,0.9-1.8,1.6-2.9,2.1
			c-1.2,0.7-1.3,0.8-0.8,2.1c0.5,1.2,0.7,2.4,0.6,3.6c-0.1,1.5-1,2.9-2.3,3.7c-1.4,0.9-3.1,1.4-4.8,1.5c-0.7,0-1.4,0.2-2.1,0.4"/>
		<path class="st0" d="M39.4,14.8c0,4.9,3,7.8,7.2,8.8c1,0.2,2.1,0.4,3.2,0.4c0.5,0,1,0.1,1.5,0.1"/>
		<path class="st0" d="M11,39.5c0.8,0.2,1.7,0.5,2.5,0.8c2.7,1.2,4.5,3.7,4.9,6.7c0.2,1.2,0.3,2.4,0.3,3.6"/>
		<path class="st0" d="M21.2,12.9c0,2.6-1.3,4.3-3.8,5.2c-1.7,0.5-3.5,0.8-5.3,0.6"/>
		<path class="st0" d="M8.8,45.4l-2.2,0.8"/>
		<path class="st0" d="M51.5,46.2l-1.9-0.8"/>
	</g>
</g>
</svg>
