<?xml version="1.0" encoding="utf-8"?>
<!-- Generator: Adobe Illustrator 22.1.0, SVG Export Plug-In . SVG Version: 6.00 Build 0)  -->
<svg version="1.1" id="Layer_1" xmlns="http://www.w3.org/2000/svg" xmlns:xlink="http://www.w3.org/1999/xlink" x="0px" y="0px"
	 viewBox="0 0 84.8 66.9" style="enable-background:new 0 0 84.8 66.9;" xml:space="preserve">
<style type="text/css">
	.st0{fill:none;stroke:#313435;stroke-linecap:round;stroke-linejoin:round;}
	.st1{fill:none;stroke:#313435;stroke-linecap:round;stroke-linejoin:round;stroke-dasharray:4.44,4.44;}
</style>
<title>About_dark</title>
<g id="Layer_2_1_">
	<g id="Layer_1-2">
		<path class="st0" d="M21.9,37c-0.3-0.2-0.7-0.4-1.1-0.4c-1.8-0.4-3.7-0.3-5.5,0.2c-1.8,0.4-3.4,1.3-4.7,2.6
			c-0.8,0.8-1.4,1.7-2,2.7c-0.8,1.3-1.3,1.3-2.4,0.2l-0.1-0.2c-1.3-1.4-2.4-3-3.4-4.7c-0.9-1.6-1.5-3.2-1.9-5
			c-0.4-1.9-0.4-3.9,0.1-5.9c0.6-2.8,2.3-5.3,4.7-6.9c0.5-0.2,0.8-0.7,0.8-1.2c0.2-3.2,1.6-6.1,4-8.2c1.7-1.6,3.7-2.7,5.9-3.4
			c1.1-0.5,2.4-0.4,3.5,0.2c0.5,0.3,1.1,0.6,1.7,0.7l20.8,52.3c0.2,0.3,0.1,0.7-0.1,1c-0.3,0.4-0.5,0.9-0.6,1.3
			c-0.5,1.2-1.6,2.2-2.8,2.7c-1.4,0.6-2.9,1-4.4,1.2c-1.8,0.3-3.7-0.3-5-1.6c-1.1-1-1.1-1-2.6-0.6c-2.8,0.8-5.8,0.1-8-1.8
			c-1.2-1.1-1.9-2.6-2-4.2c0-0.3-0.1-0.7-0.1-1.1c-0.1-1.3,0-1.1-1.2-1.3c-1.6-0.1-3.1-0.6-4.4-1.3c-1.6-1-2.8-2.6-3.4-4.5
			c-0.5-1.6-0.6-3.4-0.2-5.1c0.1-0.5,0.2-1.1,0.2-1.6"/>
		<path class="st0" d="M18.1,48.2c0.9-0.1,1.7-0.2,2.6-0.2c2.9,0.2,5.6,1.8,7,4.4c0.6,1,1.2,2.1,1.6,3.2"/>
		<path class="st0" d="M17.7,19.6c1,2.4,0.4,4.4-1.6,6.3c-1.4,1.1-3,2-4.7,2.5"/>
		<path class="st0" d="M18.1,54.4l-1.7,1.6"/>
		<path class="st0" d="M63.7,44c2,0.8,4,1.3,6.2,1.5c1.8,0.1,3.7-0.2,5.4-1c0.5-0.3,1.1-0.4,1.6-0.6s0.5-0.8,0.9-1.1
			c1-0.7,1.8-1.6,2.5-2.5c1.5-1.9,2.7-4.1,3.4-6.4c0.9-2.8,0.9-5.7,0-8.5c-0.7-2.2-2.1-4.2-4-5.6c-0.1-0.1-0.2-0.1-0.3-0.2
			c-0.6-0.3-1-0.9-1-1.5c-0.3-3.4-2-6.4-4.7-8.5c-1.6-1.3-3.5-2.3-5.5-2.9c-1.1-0.4-2.2-0.3-3.2,0.2c-0.4,0.3-0.9,0.5-1.4,0.7
			C63.2,7.6,63,7.8,63,8c0,0.1-0.1,0.2-0.1,0.2c-6.7,17.3-13.5,34.6-20.2,51.9"/>
		<path class="st0" d="M54.8,50.5c-0.6,1.4-1,2.8-1.2,4.3c-0.2,2.3,0.5,4.5,2.1,6.2c0.3,0.4,0.6,0.8,1,1.2c0.2,0.2,0.3,0.6,0,0.9
			c0,0,0,0,0,0c-1,1.2-2.3,2.1-3.8,2.4c-2.3,0.7-4.9,0.5-7.1-0.6c-1-0.5-1.8-1.3-2.3-2.4c-0.2-0.6-0.5-1.2-0.9-1.8"/>
		<path class="st0" d="M76.9,44c0.8,1.3,1.1,3,0.7,4.5c-0.4,2.6-2,4.9-4.4,6.1c-1.1,0.5-2.3,0.8-3.5,0.9c-1.4,0.2-1.5,0.3-1.5,1.7
			c0,1.2-0.3,2.5-0.8,3.6c-0.7,1.4-1.9,2.4-3.5,2.6c-1.7,0.3-3.4,0.1-5-0.4c-0.7-0.2-1.4-0.4-2.1-0.4"/>
		<path class="st0" d="M68.6,22.1c-1.8,4.5,0,8.4,3.5,10.8c0.9,0.6,1.8,1.1,2.8,1.5c0.5,0.2,0.9,0.5,1.4,0.7"/>
		<path class="st0" d="M68.1,55.8l-1.5-1.5"/>
		<path class="st0" d="M21.5,7.8c0,0,0.7-0.6,2.1-1.4"/>
		<path class="st1" d="M27.4,4.2c6.9-3.3,19.1-6.8,31.8,1.1"/>
		<path class="st0" d="M61,6.5c0.7,0.5,1.3,1,2,1.5"/>
	</g>
</g>
</svg>
