<?xml version="1.0" encoding="utf-8"?>
<!-- Generator: Adobe Illustrator 22.1.0, SVG Export Plug-In . SVG Version: 6.00 Build 0)  -->
<svg version="1.1" id="Layer_1" xmlns="http://www.w3.org/2000/svg" xmlns:xlink="http://www.w3.org/1999/xlink" x="0px" y="0px"
	 viewBox="0 0 609 430.9" style="enable-background:new 0 0 609 430.9;" xml:space="preserve">
<style type="text/css">
	.st0{opacity:0.9;fill:#FFFFFF;stroke:#CED4DA;stroke-linecap:round;stroke-linejoin:round;enable-background:new    ;}
	.st1{fill:#4D4D4D;}
	.st2{font-family:'ArialMT';}
	.st3{font-size:36px;}
	.st4{letter-spacing:27;}
	.st5{enable-background:new    ;}
	.st6{fill:#313435;}
	.st7{fill:#FFFFFF;stroke:#72777A;stroke-miterlimit:10;}
	.st8{fill:#FFFFFF;stroke:#72777A;stroke-linecap:round;stroke-linejoin:round;}
	.st9{fill:#FFFFFF;}
	.st10{font-size:18px;}
	.st11{fill:none;stroke:#72777A;stroke-miterlimit:10;}
</style>
<title>Asset 5</title>
<rect x="0.5" y="0.5" class="st0" width="608" height="349"/>
<text transform="matrix(1 0 0 1 21.72 59.56)" class="st1 st2 st3 st4">      </text>
<text transform="matrix(1 0 0 1 21.72 102.76)" class="st1 st2 st3 st4">      </text>
<g class="st5">
	<path class="st6" d="M240.5,78.5h6.4c2.8,0,5,0.7,6.6,2.2s2.4,3.3,2.4,5.6c0,2.2-0.8,4-2.4,5.4c-1.6,1.4-3.7,2.1-6.4,2.1h-3.7v8.9
		h-2.9V78.5z M243.4,91.3h3.7c1.8,0,3.3-0.5,4.3-1.4s1.5-2.2,1.5-3.6c0-1.6-0.5-2.9-1.6-3.9c-1.1-1-2.6-1.4-4.5-1.4h-3.5V91.3z"/>
	<path class="st6" d="M260.1,78.5h7.2c3.6,0,6.5,1.1,8.8,3.3c2.3,2.2,3.4,5.1,3.4,8.6c0,3.5-1.1,6.4-3.2,8.8
		c-2.1,2.4-5.1,3.5-8.9,3.5h-7.3V78.5z M263.1,100.2h4.4c3,0,5.3-0.9,6.8-2.8s2.3-4.2,2.3-7c0-2.6-0.9-4.9-2.6-6.7
		c-1.7-1.8-3.9-2.7-6.7-2.7h-4.2V100.2z"/>
	<path class="st6" d="M297.2,81.1h-10.4v8.6h9.1v2.6h-9.1v10.5h-2.9V78.5h13.3V81.1z"/>
	<path class="st6" d="M327.6,79.5v3c-1.1-0.6-2-0.9-2.8-1.2c-0.8-0.2-1.9-0.4-3.3-0.4c-2.6,0-4.8,0.9-6.5,2.7
		c-1.7,1.8-2.6,4.1-2.6,6.9c0,3,0.9,5.4,2.6,7.1c1.7,1.8,4,2.7,6.9,2.7c2.3,0,4.3-0.6,5.9-1.8v3.1c-1.5,1-3.5,1.5-6.1,1.5
		c-3.6,0-6.6-1.1-8.9-3.4s-3.4-5.3-3.4-9.2c0-3.6,1.2-6.6,3.5-8.9c2.3-2.3,5.2-3.4,8.7-3.4C324,78.2,326,78.6,327.6,79.5z"/>
	<path class="st6" d="M334.6,84.5v3.2c1-2.3,2.6-3.4,5-3.4c0.4,0,0.8,0,1,0.1v2.8c-0.5-0.2-1-0.3-1.5-0.3c-1.3,0-2.3,0.6-3.2,1.8
		s-1.3,2.5-1.3,4.1v10h-2.8l0-18.3H334.6z"/>
	<path class="st6" d="M356.9,99.2v2.7c-1.4,0.7-3.1,1.1-5.2,1.1c-2.8,0-5-0.8-6.7-2.5c-1.7-1.7-2.5-3.9-2.5-6.7
		c0-2.9,0.8-5.2,2.3-6.9c1.5-1.7,3.5-2.5,5.8-2.5c2.3,0,4.1,0.7,5.4,2.2c1.3,1.5,2,3.5,2,6.2c0,0.8-0.1,1.5-0.2,2.1h-12.5
		c0.2,1.8,0.9,3.2,2.1,4.1c1.2,1,2.7,1.4,4.5,1.4C354,100.4,355.7,100,356.9,99.2z M355.2,92.5v-0.7c0-1.5-0.4-2.7-1.2-3.6
		c-0.8-0.9-1.9-1.4-3.4-1.4c-1.4,0-2.5,0.5-3.5,1.5s-1.5,2.4-1.7,4.2H355.2z"/>
	<path class="st6" d="M362.7,88.3v-2.8c1.4-0.8,3.2-1.3,5.4-1.3c4.6,0,6.9,2.3,6.9,7v11.6h-2.8v-2.2c-0.9,1.6-2.6,2.3-5.1,2.3
		c-1.7,0-3.1-0.5-4.1-1.5s-1.6-2.3-1.6-3.8c0-1.8,0.7-3.1,2-4.1c1.3-1,3.1-1.5,5.5-1.5h3.3v-0.9c0-1.4-0.3-2.5-1-3.3
		c-0.6-0.7-1.7-1.1-3.3-1.1C366,86.8,364.3,87.3,362.7,88.3z M372.2,94.3H369c-1.5,0-2.7,0.3-3.5,0.9c-0.8,0.6-1.2,1.4-1.2,2.3
		s0.3,1.7,0.9,2.2c0.6,0.6,1.5,0.8,2.6,0.8c1.3,0,2.3-0.4,3.1-1.1c0.8-0.7,1.2-1.7,1.2-2.8V94.3z"/>
	<path class="st6" d="M384,86.8v10.7c0,1.9,0.9,2.9,2.7,2.9c0.9,0,1.8-0.3,2.5-0.8v2.7c-0.8,0.4-1.7,0.6-2.7,0.6
		c-3.6,0-5.4-1.8-5.4-5.5V86.8h-2.9v-2.3h2.9V80h2.8v4.5h5v2.3H384z"/>
	<path class="st6" d="M400.8,103.1c-2.6,0-4.7-0.9-6.2-2.6c-1.5-1.8-2.3-4-2.3-6.7c0-2.7,0.8-5,2.4-6.8c1.6-1.8,3.6-2.7,6.1-2.7
		c2.8,0,4.9,0.9,6.4,2.7c1.5,1.8,2.3,4,2.3,6.8c0,2.7-0.8,5-2.3,6.7S403.4,103.1,400.8,103.1z M400.8,86.8c-1.7,0-3.1,0.7-4.1,2
		c-1,1.3-1.5,3-1.5,4.9c0,1.9,0.5,3.5,1.5,4.8c1,1.3,2.4,2,4,2c1.8,0,3.2-0.7,4.2-2c1-1.3,1.5-2.9,1.5-4.9c0-2-0.5-3.7-1.4-5
		C404.1,87.4,402.7,86.8,400.8,86.8z"/>
	<path class="st6" d="M416.4,84.5v3.2c1-2.3,2.6-3.4,5-3.4c0.4,0,0.8,0,1,0.1v2.8c-0.5-0.2-1-0.3-1.5-0.3c-1.3,0-2.3,0.6-3.2,1.8
		s-1.3,2.5-1.3,4.1v10h-2.8l0-18.3H416.4z"/>
</g>
<g class="st5">
	<path class="st6" d="M31.8,177.5v1.5c-0.5-0.3-1-0.5-1.4-0.6c-0.4-0.1-1-0.2-1.7-0.2c-1.3,0-2.4,0.4-3.3,1.3
		c-0.9,0.9-1.3,2-1.3,3.5c0,1.5,0.4,2.7,1.3,3.6c0.9,0.9,2,1.3,3.4,1.3c1.2,0,2.1-0.3,3-0.9v1.5c-0.7,0.5-1.8,0.8-3.1,0.8
		c-1.8,0-3.3-0.6-4.4-1.7c-1.1-1.1-1.7-2.6-1.7-4.6c0-1.8,0.6-3.3,1.7-4.5c1.2-1.1,2.6-1.7,4.4-1.7C29.9,176.9,31,177.1,31.8,177.5z
		"/>
	<path class="st6" d="M35.3,180v1.6c0.5-1.1,1.3-1.7,2.5-1.7c0.2,0,0.4,0,0.5,0v1.4c-0.3-0.1-0.5-0.1-0.8-0.1
		c-0.6,0-1.2,0.3-1.6,0.9c-0.4,0.6-0.6,1.3-0.6,2v5h-1.4l0-9.1H35.3z"/>
	<path class="st6" d="M46.4,187.4v1.3c-0.7,0.4-1.6,0.6-2.6,0.6c-1.4,0-2.5-0.4-3.3-1.3c-0.8-0.8-1.3-2-1.3-3.4
		c0-1.5,0.4-2.6,1.1-3.4c0.8-0.8,1.7-1.3,2.9-1.3c1.1,0,2,0.4,2.7,1.1c0.7,0.7,1,1.8,1,3.1c0,0.4,0,0.7-0.1,1.1h-6.2
		c0.1,0.9,0.5,1.6,1,2.1c0.6,0.5,1.3,0.7,2.3,0.7C45,188,45.8,187.8,46.4,187.4z M45.6,184v-0.4c0-0.8-0.2-1.4-0.6-1.8
		c-0.4-0.4-1-0.7-1.7-0.7c-0.7,0-1.3,0.2-1.7,0.7c-0.5,0.5-0.8,1.2-0.8,2.1H45.6z"/>
	<path class="st6" d="M49.3,181.9v-1.4c0.7-0.4,1.6-0.6,2.7-0.6c2.3,0,3.4,1.2,3.4,3.5v5.8h-1.4v-1.1c-0.5,0.8-1.3,1.2-2.6,1.2
		c-0.9,0-1.5-0.3-2.1-0.8s-0.8-1.1-0.8-1.9c0-0.9,0.3-1.6,1-2c0.7-0.5,1.6-0.7,2.7-0.7H54v-0.5c0-0.7-0.2-1.3-0.5-1.6
		c-0.3-0.4-0.9-0.5-1.6-0.5C51,181.2,50.1,181.4,49.3,181.9z M54,184.9h-1.6c-0.8,0-1.3,0.2-1.7,0.5c-0.4,0.3-0.6,0.7-0.6,1.1
		s0.1,0.8,0.5,1.1c0.3,0.3,0.7,0.4,1.3,0.4c0.6,0,1.2-0.2,1.5-0.5c0.4-0.4,0.6-0.8,0.6-1.4V184.9z"/>
	<path class="st6" d="M60,181.2v5.3c0,1,0.5,1.5,1.4,1.5c0.5,0,0.9-0.1,1.2-0.4v1.3c-0.4,0.2-0.8,0.3-1.3,0.3
		c-1.8,0-2.7-0.9-2.7-2.8v-5.3h-1.5V180h1.5v-2.3H60v2.3h2.5v1.2H60z"/>
	<path class="st6" d="M71.3,187.4v1.3c-0.7,0.4-1.6,0.6-2.6,0.6c-1.4,0-2.5-0.4-3.3-1.3c-0.8-0.8-1.3-2-1.3-3.4
		c0-1.5,0.4-2.6,1.1-3.4c0.8-0.8,1.7-1.3,2.9-1.3c1.1,0,2,0.4,2.7,1.1c0.7,0.7,1,1.8,1,3.1c0,0.4,0,0.7-0.1,1.1h-6.2
		c0.1,0.9,0.5,1.6,1,2.1c0.6,0.5,1.3,0.7,2.3,0.7C69.9,188,70.7,187.8,71.3,187.4z M70.4,184v-0.4c0-0.8-0.2-1.4-0.6-1.8
		c-0.4-0.4-1-0.7-1.7-0.7c-0.7,0-1.3,0.2-1.7,0.7c-0.5,0.5-0.8,1.2-0.8,2.1H70.4z"/>
	<path class="st6" d="M79.4,184.6c0,1,0.3,1.8,0.9,2.5c0.6,0.7,1.4,1,2.5,1c0.7,0,1.3-0.2,1.9-0.6v1.3c-0.6,0.3-1.3,0.5-2.1,0.5
		c-1.4,0-2.6-0.5-3.4-1.4s-1.3-2-1.3-3.4c0-1.3,0.4-2.4,1.3-3.3c0.8-0.9,2-1.4,3.5-1.4c0.8,0,1.5,0.2,2.1,0.5v1.4
		c-0.6-0.4-1.2-0.6-1.9-0.6c-1,0-1.9,0.3-2.5,1S79.4,183.7,79.4,184.6z"/>
	<path class="st6" d="M92.6,180H94v9.1h-1.4v-1.6c-0.5,1.1-1.4,1.7-2.9,1.7c-0.9,0-1.6-0.3-2.1-0.8c-0.5-0.5-0.8-1.3-0.8-2.2V180
		h1.4v5.9c0,0.7,0.2,1.2,0.5,1.5c0.3,0.3,0.8,0.5,1.4,0.5c0.8,0,1.4-0.3,1.8-0.8c0.4-0.5,0.7-1.2,0.7-2.1V180z"/>
	<path class="st6" d="M101.6,180.3v1.4c-0.6-0.3-1.3-0.5-2.3-0.5c-0.5,0-0.9,0.1-1.1,0.3c-0.3,0.2-0.4,0.5-0.4,0.9
		c0,0.2,0,0.4,0.1,0.6c0.1,0.2,0.2,0.3,0.5,0.5c0.2,0.2,0.4,0.3,0.5,0.3c0.1,0.1,0.4,0.2,0.7,0.3c0.8,0.3,1.4,0.7,1.8,1.1
		c0.4,0.4,0.6,0.9,0.6,1.6c0,0.8-0.3,1.4-0.8,1.9s-1.3,0.7-2.2,0.7c-1.1,0-2-0.2-2.7-0.6v-1.4c0.8,0.5,1.7,0.7,2.6,0.7
		c0.6,0,1-0.1,1.3-0.3c0.3-0.2,0.4-0.5,0.4-0.9c0-0.4-0.2-0.8-0.5-1c-0.3-0.2-0.8-0.5-1.6-0.8c-0.7-0.3-1.2-0.6-1.6-1
		c-0.4-0.4-0.6-0.9-0.6-1.6c0-0.8,0.3-1.4,0.9-1.8s1.3-0.7,2.1-0.7C100.2,179.9,101,180.1,101.6,180.3z"/>
	<path class="st6" d="M106,181.2v5.3c0,1,0.5,1.5,1.4,1.5c0.5,0,0.9-0.1,1.2-0.4v1.3c-0.4,0.2-0.8,0.3-1.3,0.3
		c-1.8,0-2.7-0.9-2.7-2.8v-5.3h-1.5V180h1.5v-2.3h1.4v2.3h2.5v1.2H106z"/>
	<path class="st6" d="M114.4,189.3c-1.3,0-2.3-0.4-3.1-1.3c-0.8-0.9-1.1-2-1.1-3.3c0-1.4,0.4-2.5,1.2-3.4c0.8-0.9,1.8-1.4,3.1-1.4
		c1.4,0,2.4,0.4,3.2,1.3s1.1,2,1.1,3.4c0,1.4-0.4,2.5-1.2,3.4S115.7,189.3,114.4,189.3z M114.4,181.2c-0.9,0-1.5,0.3-2,1
		c-0.5,0.7-0.7,1.5-0.7,2.5c0,0.9,0.3,1.8,0.8,2.4s1.2,1,2,1c0.9,0,1.6-0.3,2.1-1c0.5-0.7,0.7-1.5,0.7-2.4c0-1-0.2-1.8-0.7-2.5
		C116.1,181.5,115.3,181.2,114.4,181.2z"/>
	<path class="st6" d="M122.2,180v1.5c0.5-1.1,1.4-1.6,2.6-1.6c1.4,0,2.3,0.6,2.7,1.8c0.3-0.6,0.6-1,1.1-1.3s1-0.5,1.6-0.5
		c0.9,0,1.7,0.3,2.1,0.8s0.7,1.3,0.7,2.2v6.3h-1.4v-5.9c0-1.4-0.6-2.1-1.7-2.1c-0.6,0-1.1,0.3-1.5,0.8c-0.5,0.5-0.7,1.3-0.7,2.2v5
		h-1.4v-5.9c0-1.4-0.6-2.1-1.7-2.1c-0.6,0-1.1,0.3-1.5,0.8c-0.5,0.5-0.7,1.3-0.7,2.2v5h-1.4V180H122.2z"/>
	<path class="st6" d="M140,177h3.2c1.4,0,2.5,0.4,3.3,1.1c0.8,0.7,1.2,1.7,1.2,2.8c0,1.1-0.4,2-1.2,2.7c-0.8,0.7-1.9,1.1-3.2,1.1
		h-1.9v4.5H140V177z M141.4,183.5h1.9c0.9,0,1.6-0.2,2.1-0.7c0.5-0.5,0.8-1.1,0.8-1.8c0-0.8-0.3-1.5-0.8-1.9
		c-0.5-0.5-1.3-0.7-2.3-0.7h-1.7V183.5z"/>
	<path class="st6" d="M149.8,177h3.6c1.8,0,3.3,0.6,4.4,1.7c1.1,1.1,1.7,2.5,1.7,4.3c0,1.8-0.5,3.2-1.6,4.4s-2.5,1.8-4.5,1.8h-3.7
		V177z M151.3,187.9h2.2c1.5,0,2.6-0.5,3.4-1.4s1.2-2.1,1.2-3.5c0-1.3-0.4-2.4-1.3-3.3c-0.9-0.9-2-1.3-3.3-1.3h-2.1V187.9z"/>
	<path class="st6" d="M168.3,178.3h-5.2v4.3h4.6v1.3h-4.6v5.3h-1.5V177h6.7V178.3z"/>
	<path class="st6" d="M169.3,180.7l1.5-4h1.8l-2.2,4H169.3z"/>
	<path class="st6" d="M178.6,180.3v1.4c-0.6-0.3-1.3-0.5-2.3-0.5c-0.5,0-0.9,0.1-1.1,0.3c-0.3,0.2-0.4,0.5-0.4,0.9
		c0,0.2,0,0.4,0.1,0.6c0.1,0.2,0.2,0.3,0.5,0.5c0.2,0.2,0.4,0.3,0.5,0.3c0.1,0.1,0.4,0.2,0.7,0.3c0.8,0.3,1.4,0.7,1.8,1.1
		c0.4,0.4,0.6,0.9,0.6,1.6c0,0.8-0.3,1.4-0.8,1.9s-1.3,0.7-2.2,0.7c-1.1,0-2-0.2-2.7-0.6v-1.4c0.8,0.5,1.7,0.7,2.6,0.7
		c0.6,0,1-0.1,1.3-0.3c0.3-0.2,0.4-0.5,0.4-0.9c0-0.4-0.2-0.8-0.5-1c-0.3-0.2-0.8-0.5-1.6-0.8c-0.7-0.3-1.2-0.6-1.6-1
		c-0.4-0.4-0.6-0.9-0.6-1.6c0-0.8,0.3-1.4,0.9-1.8s1.3-0.7,2.1-0.7C177.3,179.9,178.1,180.1,178.6,180.3z"/>
	<path class="st6" d="M189.2,189.3c-1.3,0-2.3-0.4-3.1-1.3c-0.8-0.9-1.1-2-1.1-3.3c0-1.4,0.4-2.5,1.2-3.4c0.8-0.9,1.8-1.4,3.1-1.4
		c1.4,0,2.4,0.4,3.2,1.3s1.1,2,1.1,3.4c0,1.4-0.4,2.5-1.2,3.4S190.5,189.3,189.2,189.3z M189.2,181.2c-0.9,0-1.5,0.3-2,1
		c-0.5,0.7-0.7,1.5-0.7,2.5c0,0.9,0.3,1.8,0.8,2.4s1.2,1,2,1c0.9,0,1.6-0.3,2.1-1c0.5-0.7,0.7-1.5,0.7-2.4c0-1-0.2-1.8-0.7-2.5
		C190.9,181.5,190.1,181.2,189.2,181.2z"/>
	<path class="st6" d="M200,176.4v1.3c-0.3-0.1-0.6-0.1-0.8-0.1c-0.4,0-0.7,0.1-0.9,0.4c-0.2,0.3-0.4,0.7-0.4,1.2v0.8h2v1.2h-2v8
		h-1.4v-8h-1.6V180h1.6v-0.8c0-0.9,0.2-1.6,0.7-2.1c0.5-0.5,1.1-0.8,2-0.8C199.4,176.3,199.7,176.4,200,176.4z"/>
	<path class="st6" d="M206,177.8c-0.2-0.2-0.3-0.4-0.3-0.7c0-0.3,0.1-0.5,0.3-0.7c0.2-0.2,0.4-0.3,0.7-0.3s0.5,0.1,0.7,0.3
		c0.2,0.2,0.3,0.4,0.3,0.7c0,0.3-0.1,0.5-0.3,0.7c-0.2,0.2-0.4,0.3-0.7,0.3S206.2,178,206,177.8z M206,189.2V180h1.4v9.1H206z"/>
	<path class="st6" d="M211.5,180v1.5c0.5-1.1,1.4-1.6,2.6-1.6c1.4,0,2.3,0.6,2.7,1.8c0.3-0.6,0.6-1,1.1-1.3s1-0.5,1.6-0.5
		c0.9,0,1.7,0.3,2.1,0.8s0.7,1.3,0.7,2.2v6.3h-1.4v-5.9c0-1.4-0.6-2.1-1.7-2.1c-0.6,0-1.1,0.3-1.5,0.8c-0.5,0.5-0.7,1.3-0.7,2.2v5
		h-1.4v-5.9c0-1.4-0.6-2.1-1.7-2.1c-0.6,0-1.1,0.3-1.5,0.8c-0.5,0.5-0.7,1.3-0.7,2.2v5h-1.4V180H211.5z"/>
	<path class="st6" d="M225,181.9v-1.4c0.7-0.4,1.6-0.6,2.7-0.6c2.3,0,3.4,1.2,3.4,3.5v5.8h-1.4v-1.1c-0.5,0.8-1.3,1.2-2.6,1.2
		c-0.9,0-1.5-0.3-2.1-0.8s-0.8-1.1-0.8-1.9c0-0.9,0.3-1.6,1-2c0.7-0.5,1.6-0.7,2.7-0.7h1.7v-0.5c0-0.7-0.2-1.3-0.5-1.6
		c-0.3-0.4-0.9-0.5-1.6-0.5C226.6,181.2,225.8,181.4,225,181.9z M229.7,184.9h-1.6c-0.8,0-1.3,0.2-1.7,0.5c-0.4,0.3-0.6,0.7-0.6,1.1
		s0.1,0.8,0.5,1.1c0.3,0.3,0.7,0.4,1.3,0.4c0.6,0,1.2-0.2,1.5-0.5c0.4-0.4,0.6-0.8,0.6-1.4V184.9z"/>
	<path class="st6" d="M239.6,180h1.4v8.4c0,1.4-0.4,2.4-1.2,3.1s-1.8,1.1-3,1.1c-1.1,0-2-0.2-2.8-0.6v-1.4c0.8,0.4,1.7,0.7,2.7,0.7
		c0.9,0,1.6-0.2,2.1-0.7c0.5-0.5,0.8-1.2,0.8-2.2v-1c-0.6,1-1.5,1.5-2.7,1.5c-1,0-1.9-0.4-2.7-1.2c-0.7-0.8-1.1-1.8-1.1-3.2
		c0-1.4,0.3-2.5,1-3.3c0.7-0.9,1.6-1.3,2.7-1.3c1.2,0,2.2,0.5,2.8,1.6V180z M237.1,187.7c0.7,0,1.2-0.3,1.8-0.8
		c0.5-0.5,0.8-1.3,0.8-2.3c0-1.2-0.2-2-0.7-2.6c-0.5-0.6-1.1-0.8-1.7-0.8c-0.8,0-1.4,0.3-1.9,0.9c-0.5,0.6-0.7,1.4-0.7,2.4
		c0,1,0.3,1.8,0.8,2.3S236.5,187.7,237.1,187.7z"/>
	<path class="st6" d="M250.2,187.4v1.3c-0.7,0.4-1.6,0.6-2.6,0.6c-1.4,0-2.5-0.4-3.3-1.3c-0.8-0.8-1.3-2-1.3-3.4
		c0-1.5,0.4-2.6,1.1-3.4c0.8-0.8,1.7-1.3,2.9-1.3c1.1,0,2,0.4,2.7,1.1c0.7,0.7,1,1.8,1,3.1c0,0.4,0,0.7-0.1,1.1h-6.2
		c0.1,0.9,0.5,1.6,1,2.1c0.6,0.5,1.3,0.7,2.3,0.7C248.8,188,249.6,187.8,250.2,187.4z M249.4,184v-0.4c0-0.8-0.2-1.4-0.6-1.8
		c-0.4-0.4-1-0.7-1.7-0.7c-0.7,0-1.3,0.2-1.7,0.7c-0.5,0.5-0.8,1.2-0.8,2.1H249.4z"/>
	<path class="st6" d="M257.9,180.3v1.4c-0.6-0.3-1.3-0.5-2.3-0.5c-0.5,0-0.9,0.1-1.1,0.3c-0.3,0.2-0.4,0.5-0.4,0.9
		c0,0.2,0,0.4,0.1,0.6c0.1,0.2,0.2,0.3,0.5,0.5c0.2,0.2,0.4,0.3,0.5,0.3c0.1,0.1,0.4,0.2,0.7,0.3c0.8,0.3,1.4,0.7,1.8,1.1
		c0.4,0.4,0.6,0.9,0.6,1.6c0,0.8-0.3,1.4-0.8,1.9s-1.3,0.7-2.2,0.7c-1.1,0-2-0.2-2.7-0.6v-1.4c0.8,0.5,1.7,0.7,2.6,0.7
		c0.6,0,1-0.1,1.3-0.3c0.3-0.2,0.4-0.5,0.4-0.9c0-0.4-0.2-0.8-0.5-1c-0.3-0.2-0.8-0.5-1.6-0.8c-0.7-0.3-1.2-0.6-1.6-1
		c-0.4-0.4-0.6-0.9-0.6-1.6c0-0.8,0.3-1.4,0.9-1.8s1.3-0.7,2.1-0.7C256.6,179.9,257.4,180.1,257.9,180.3z"/>
	<path class="st6" d="M267.3,188.9l-3.7-8.9h1.6l1.2,3l1.6,4.1c0.1-0.3,0.6-1.7,1.4-4.1l1.1-3h1.5l-3.3,8.9c-0.5,1.2-1,2.1-1.7,2.6
		s-1.4,0.8-2.2,0.8c-0.3,0-0.6,0-0.8-0.1v-1.3c0.2,0,0.4,0.1,0.6,0.1C265.9,191,266.8,190.3,267.3,188.9z"/>
	<path class="st6" d="M277.4,189.3c-1.3,0-2.3-0.4-3.1-1.3c-0.8-0.9-1.1-2-1.1-3.3c0-1.4,0.4-2.5,1.2-3.4c0.8-0.9,1.8-1.4,3.1-1.4
		c1.4,0,2.4,0.4,3.2,1.3s1.1,2,1.1,3.4c0,1.4-0.4,2.5-1.2,3.4S278.7,189.3,277.4,189.3z M277.4,181.2c-0.9,0-1.5,0.3-2,1
		c-0.5,0.7-0.7,1.5-0.7,2.5c0,0.9,0.3,1.8,0.8,2.4s1.2,1,2,1c0.9,0,1.6-0.3,2.1-1c0.5-0.7,0.7-1.5,0.7-2.4c0-1-0.2-1.8-0.7-2.5
		C279,181.5,278.3,181.2,277.4,181.2z"/>
	<path class="st6" d="M289.4,180h1.4v9.1h-1.4v-1.6c-0.5,1.1-1.4,1.7-2.9,1.7c-0.9,0-1.6-0.3-2.1-0.8c-0.5-0.5-0.8-1.3-0.8-2.2V180
		h1.4v5.9c0,0.7,0.2,1.2,0.5,1.5c0.3,0.3,0.8,0.5,1.4,0.5c0.8,0,1.4-0.3,1.8-0.8c0.4-0.5,0.7-1.2,0.7-2.1V180z"/>
	<path class="st6" d="M292.4,180.7l1.5-4h1.8l-2.2,4H292.4z"/>
	<path class="st6" d="M299.1,189.2l-3.2-9.1h1.5l1.3,3.9l1.3,4.2c0.1-0.5,0.6-1.9,1.4-4.2l1.3-3.9h1.5l-3.3,9.1H299.1z"/>
	<path class="st6" d="M312.5,187.4v1.3c-0.7,0.4-1.6,0.6-2.6,0.6c-1.4,0-2.5-0.4-3.3-1.3c-0.8-0.8-1.3-2-1.3-3.4
		c0-1.5,0.4-2.6,1.1-3.4s1.7-1.3,2.9-1.3c1.1,0,2,0.4,2.7,1.1c0.7,0.7,1,1.8,1,3.1c0,0.4,0,0.7-0.1,1.1h-6.2c0.1,0.9,0.5,1.6,1,2.1
		c0.6,0.5,1.3,0.7,2.3,0.7C311.1,188,311.9,187.8,312.5,187.4z M311.6,184v-0.4c0-0.8-0.2-1.4-0.6-1.8c-0.4-0.4-1-0.7-1.7-0.7
		c-0.7,0-1.3,0.2-1.7,0.7s-0.8,1.2-0.8,2.1H311.6z"/>
	<path class="st6" d="M324.6,180.3v1.4c-0.6-0.3-1.3-0.5-2.3-0.5c-0.5,0-0.9,0.1-1.1,0.3c-0.3,0.2-0.4,0.5-0.4,0.9
		c0,0.2,0,0.4,0.1,0.6s0.2,0.3,0.5,0.5c0.2,0.2,0.4,0.3,0.5,0.3c0.1,0.1,0.4,0.2,0.7,0.3c0.8,0.3,1.4,0.7,1.8,1.1
		c0.4,0.4,0.6,0.9,0.6,1.6c0,0.8-0.3,1.4-0.8,1.9s-1.3,0.7-2.2,0.7c-1.1,0-2-0.2-2.7-0.6v-1.4c0.8,0.5,1.7,0.7,2.6,0.7
		c0.6,0,1-0.1,1.3-0.3c0.3-0.2,0.4-0.5,0.4-0.9c0-0.4-0.2-0.8-0.5-1s-0.8-0.5-1.6-0.8c-0.7-0.3-1.2-0.6-1.6-1
		c-0.4-0.4-0.6-0.9-0.6-1.6c0-0.8,0.3-1.4,0.9-1.8c0.6-0.5,1.3-0.7,2.1-0.7C323.2,179.9,324,180.1,324.6,180.3z"/>
	<path class="st6" d="M333.7,187.4v1.3c-0.7,0.4-1.6,0.6-2.6,0.6c-1.4,0-2.5-0.4-3.3-1.3c-0.8-0.8-1.3-2-1.3-3.4
		c0-1.5,0.4-2.6,1.1-3.4s1.7-1.3,2.9-1.3c1.1,0,2,0.4,2.7,1.1c0.7,0.7,1,1.8,1,3.1c0,0.4,0,0.7-0.1,1.1h-6.2c0.1,0.9,0.5,1.6,1,2.1
		c0.6,0.5,1.3,0.7,2.3,0.7C332.3,188,333.1,187.8,333.7,187.4z M332.8,184v-0.4c0-0.8-0.2-1.4-0.6-1.8c-0.4-0.4-1-0.7-1.7-0.7
		c-0.7,0-1.3,0.2-1.7,0.7s-0.8,1.2-0.8,2.1H332.8z"/>
	<path class="st6" d="M336.5,189.2v-12.7h1.4v12.7H336.5z"/>
	<path class="st6" d="M347.3,187.4v1.3c-0.7,0.4-1.6,0.6-2.6,0.6c-1.4,0-2.5-0.4-3.3-1.3c-0.8-0.8-1.3-2-1.3-3.4
		c0-1.5,0.4-2.6,1.1-3.4c0.8-0.8,1.7-1.3,2.9-1.3c1.1,0,2,0.4,2.7,1.1c0.7,0.7,1,1.8,1,3.1c0,0.4,0,0.7-0.1,1.1h-6.2
		c0.1,0.9,0.5,1.6,1,2.1c0.6,0.5,1.3,0.7,2.3,0.7C345.9,188,346.7,187.8,347.3,187.4z M346.4,184v-0.4c0-0.8-0.2-1.4-0.6-1.8
		c-0.4-0.4-1-0.7-1.7-0.7c-0.7,0-1.3,0.2-1.7,0.7c-0.5,0.5-0.8,1.2-0.8,2.1H346.4z"/>
	<path class="st6" d="M351,184.6c0,1,0.3,1.8,0.9,2.5c0.6,0.7,1.4,1,2.5,1c0.7,0,1.3-0.2,1.9-0.6v1.3c-0.6,0.3-1.3,0.5-2.1,0.5
		c-1.4,0-2.6-0.5-3.4-1.4c-0.8-0.9-1.3-2-1.3-3.4c0-1.3,0.4-2.4,1.3-3.3c0.8-0.9,2-1.4,3.5-1.4c0.8,0,1.5,0.2,2.1,0.5v1.4
		c-0.6-0.4-1.2-0.6-1.9-0.6c-1,0-1.9,0.3-2.5,1S351,183.7,351,184.6z"/>
	<path class="st6" d="M360.5,181.2v5.3c0,1,0.5,1.5,1.4,1.5c0.5,0,0.9-0.1,1.2-0.4v1.3c-0.4,0.2-0.8,0.3-1.3,0.3
		c-1.8,0-2.7-0.9-2.7-2.8v-5.3h-1.5V180h1.5v-2.3h1.4v2.3h2.5v1.2H360.5z"/>
	<path class="st6" d="M371.8,187.4v1.3c-0.7,0.4-1.6,0.6-2.6,0.6c-1.4,0-2.5-0.4-3.3-1.3c-0.8-0.8-1.3-2-1.3-3.4
		c0-1.5,0.4-2.6,1.1-3.4c0.8-0.8,1.7-1.3,2.9-1.3c1.1,0,2,0.4,2.7,1.1c0.7,0.7,1,1.8,1,3.1c0,0.4,0,0.7-0.1,1.1h-6.2
		c0.1,0.9,0.5,1.6,1,2.1c0.6,0.5,1.3,0.7,2.3,0.7C370.4,188,371.2,187.8,371.8,187.4z M370.9,184v-0.4c0-0.8-0.2-1.4-0.6-1.8
		c-0.4-0.4-1-0.7-1.7-0.7c-0.7,0-1.3,0.2-1.7,0.7c-0.5,0.5-0.8,1.2-0.8,2.1H370.9z"/>
	<path class="st6" d="M380.7,176.4h1.4v12.7h-1.4v-1.3c-0.6,1-1.6,1.5-2.8,1.5c-1.2,0-2.2-0.4-2.9-1.3c-0.7-0.9-1-2-1-3.3
		c0-1.4,0.4-2.6,1.1-3.5c0.7-0.9,1.7-1.3,2.8-1.3c1.2,0,2.1,0.5,2.8,1.5V176.4z M378,188c0.7,0,1.4-0.3,1.9-0.8
		c0.5-0.6,0.8-1.4,0.8-2.6c0-1.2-0.3-2-0.8-2.5s-1.1-0.8-1.8-0.8c-0.8,0-1.4,0.3-1.9,0.9c-0.5,0.6-0.7,1.5-0.7,2.6
		c0,1,0.2,1.8,0.7,2.4C376.7,187.7,377.3,188,378,188z"/>
	<path class="st6" d="M384.2,189c-0.2-0.2-0.3-0.5-0.3-0.8s0.1-0.6,0.3-0.8s0.5-0.3,0.8-0.3c0.3,0,0.6,0.1,0.8,0.3s0.3,0.5,0.3,0.8
		s-0.1,0.6-0.3,0.8s-0.5,0.3-0.8,0.3C384.6,189.3,384.4,189.2,384.2,189z"/>
</g>
<g class="st5">
	<path class="st6" d="M29.5,220.7v1.5c-0.7-0.5-1.6-0.7-2.6-0.7c-0.7,0-1.3,0.2-1.7,0.5c-0.4,0.3-0.6,0.8-0.6,1.3
		c0,0.3,0.1,0.5,0.2,0.8c0.1,0.2,0.3,0.4,0.6,0.6c0.3,0.2,0.5,0.3,0.7,0.5c0.2,0.1,0.5,0.2,1,0.4c0.4,0.2,0.7,0.3,0.9,0.4
		c0.2,0.1,0.5,0.3,0.8,0.5c0.3,0.2,0.6,0.4,0.8,0.6s0.3,0.5,0.5,0.8c0.1,0.3,0.2,0.7,0.2,1.1c0,1.1-0.4,1.9-1.1,2.5
		c-0.7,0.6-1.7,0.9-2.8,0.9c-1.3,0-2.4-0.3-3.2-0.8v-1.6c0.9,0.7,1.9,1,3.2,1c0.8,0,1.4-0.2,1.8-0.5s0.6-0.8,0.6-1.5
		c0-0.3-0.1-0.5-0.2-0.7c-0.1-0.2-0.3-0.4-0.5-0.6c-0.2-0.2-0.5-0.3-0.7-0.4c-0.2-0.1-0.5-0.3-0.9-0.4c-0.1,0-0.2-0.1-0.3-0.1
		c-0.5-0.2-0.9-0.4-1.2-0.6c-0.3-0.1-0.6-0.4-1-0.6c-0.4-0.3-0.6-0.6-0.8-1c-0.2-0.4-0.3-0.8-0.3-1.3c0-1,0.4-1.8,1.1-2.4
		c0.7-0.6,1.7-0.9,2.8-0.9C27.8,220.1,28.7,220.3,29.5,220.7z"/>
	<path class="st6" d="M32.6,221c-0.2-0.2-0.3-0.4-0.3-0.7c0-0.3,0.1-0.5,0.3-0.7c0.2-0.2,0.4-0.3,0.7-0.3s0.5,0.1,0.7,0.3
		c0.2,0.2,0.3,0.4,0.3,0.7c0,0.3-0.1,0.5-0.3,0.7c-0.2,0.2-0.4,0.3-0.7,0.3S32.8,221.2,32.6,221z M32.5,232.4v-9.1H34v9.1H32.5z"/>
	<path class="st6" d="M38.1,223.2v1.5c0.5-1.1,1.4-1.6,2.6-1.6c1.4,0,2.3,0.6,2.7,1.8c0.3-0.6,0.6-1,1.1-1.3s1-0.5,1.6-0.5
		c0.9,0,1.7,0.3,2.1,0.8s0.7,1.3,0.7,2.2v6.3h-1.4v-5.9c0-1.4-0.6-2.1-1.7-2.1c-0.6,0-1.1,0.3-1.5,0.8c-0.5,0.5-0.7,1.3-0.7,2.2v5
		H42v-5.9c0-1.4-0.6-2.1-1.7-2.1c-0.6,0-1.1,0.3-1.5,0.8c-0.5,0.5-0.7,1.3-0.7,2.2v5h-1.4v-9.1H38.1z"/>
	<path class="st6" d="M52.8,223.2v1.4c0.6-1,1.6-1.5,2.8-1.5c1.2,0,2.2,0.4,2.9,1.3s1,2,1,3.3c0,1.4-0.4,2.6-1.1,3.4
		c-0.7,0.9-1.7,1.3-2.8,1.3c-1.2,0-2.1-0.5-2.8-1.5v4.9h-1.4v-12.7H52.8z M55.4,231.2c0.8,0,1.4-0.3,1.9-0.9
		c0.5-0.6,0.7-1.5,0.7-2.6c0-1-0.2-1.8-0.7-2.4c-0.5-0.6-1.1-0.9-1.8-0.9s-1.4,0.3-1.9,0.8c-0.5,0.5-0.8,1.4-0.8,2.6
		c0,1.2,0.3,2,0.8,2.6C54.1,230.9,54.7,231.2,55.4,231.2z"/>
	<path class="st6" d="M61.7,232.4v-12.7h1.4v12.7H61.7z"/>
	<path class="st6" d="M68.3,232.1l-3.7-8.9h1.6l1.2,3l1.6,4.1c0.1-0.3,0.6-1.7,1.4-4.1l1.1-3H73l-3.3,8.9c-0.5,1.2-1,2.1-1.7,2.6
		s-1.4,0.8-2.2,0.8c-0.3,0-0.6,0-0.8-0.1v-1.3c0.2,0,0.4,0.1,0.6,0.1C66.9,234.2,67.8,233.5,68.3,232.1z"/>
	<path class="st6" d="M84,223.5v1.4c-0.6-0.3-1.3-0.5-2.3-0.5c-0.5,0-0.9,0.1-1.1,0.3c-0.3,0.2-0.4,0.5-0.4,0.9c0,0.2,0,0.4,0.1,0.6
		c0.1,0.2,0.2,0.3,0.5,0.5c0.2,0.2,0.4,0.3,0.5,0.3c0.1,0.1,0.4,0.2,0.7,0.3c0.8,0.3,1.4,0.7,1.8,1.1c0.4,0.4,0.6,0.9,0.6,1.6
		c0,0.8-0.3,1.4-0.8,1.9s-1.3,0.7-2.2,0.7c-1.1,0-2-0.2-2.7-0.6v-1.4c0.8,0.5,1.7,0.7,2.6,0.7c0.6,0,1-0.1,1.3-0.3
		c0.3-0.2,0.4-0.5,0.4-0.9c0-0.4-0.2-0.8-0.5-1c-0.3-0.2-0.8-0.5-1.6-0.8c-0.7-0.3-1.2-0.6-1.6-1c-0.4-0.4-0.6-0.9-0.6-1.6
		c0-0.8,0.3-1.4,0.9-1.8s1.3-0.7,2.1-0.7C82.7,223.1,83.4,223.3,84,223.5z"/>
	<path class="st6" d="M93.1,230.6v1.3c-0.7,0.4-1.6,0.6-2.6,0.6c-1.4,0-2.5-0.4-3.3-1.3c-0.8-0.8-1.3-2-1.3-3.4
		c0-1.5,0.4-2.6,1.1-3.4c0.8-0.8,1.7-1.3,2.9-1.3c1.1,0,2,0.4,2.7,1.1c0.7,0.7,1,1.8,1,3.1c0,0.4,0,0.7-0.1,1.1h-6.2
		c0.1,0.9,0.5,1.6,1,2.1c0.6,0.5,1.3,0.7,2.3,0.7C91.7,231.2,92.5,231,93.1,230.6z M92.3,227.2v-0.4c0-0.8-0.2-1.4-0.6-1.8
		c-0.4-0.4-1-0.7-1.7-0.7c-0.7,0-1.3,0.2-1.7,0.7c-0.5,0.5-0.8,1.2-0.8,2.1H92.3z"/>
	<path class="st6" d="M95.9,232.4v-12.7h1.4v12.7H95.9z"/>
	<path class="st6" d="M106.7,230.6v1.3c-0.7,0.4-1.6,0.6-2.6,0.6c-1.4,0-2.5-0.4-3.3-1.3c-0.8-0.8-1.3-2-1.3-3.4
		c0-1.5,0.4-2.6,1.1-3.4c0.8-0.8,1.7-1.3,2.9-1.3c1.1,0,2,0.4,2.7,1.1c0.7,0.7,1,1.8,1,3.1c0,0.4,0,0.7-0.1,1.1H101
		c0.1,0.9,0.5,1.6,1,2.1c0.6,0.5,1.3,0.7,2.3,0.7C105.3,231.2,106.1,231,106.7,230.6z M105.9,227.2v-0.4c0-0.8-0.2-1.4-0.6-1.8
		c-0.4-0.4-1-0.7-1.7-0.7c-0.7,0-1.3,0.2-1.7,0.7c-0.5,0.5-0.8,1.2-0.8,2.1H105.9z"/>
	<path class="st6" d="M110.4,227.8c0,1,0.3,1.8,0.9,2.5c0.6,0.7,1.4,1,2.5,1c0.7,0,1.3-0.2,1.9-0.6v1.3c-0.6,0.3-1.3,0.5-2.1,0.5
		c-1.4,0-2.6-0.5-3.4-1.4s-1.3-2-1.3-3.4c0-1.3,0.4-2.4,1.3-3.3c0.8-0.9,2-1.4,3.5-1.4c0.8,0,1.5,0.2,2.1,0.5v1.4
		c-0.6-0.4-1.2-0.6-1.9-0.6c-1,0-1.9,0.3-2.5,1S110.4,226.9,110.4,227.8z"/>
	<path class="st6" d="M119.9,224.4v5.3c0,1,0.5,1.5,1.4,1.5c0.5,0,0.9-0.1,1.2-0.4v1.3c-0.4,0.2-0.8,0.3-1.3,0.3
		c-1.8,0-2.7-0.9-2.7-2.8v-5.3H117v-1.2h1.5V221h1.4v2.3h2.5v1.2H119.9z"/>
	<path class="st6" d="M130.9,224.4v5.3c0,1,0.5,1.5,1.4,1.5c0.5,0,0.9-0.1,1.2-0.4v1.3c-0.4,0.2-0.8,0.3-1.3,0.3
		c-1.8,0-2.7-0.9-2.7-2.8v-5.3H128v-1.2h1.5V221h1.4v2.3h2.5v1.2H130.9z"/>
	<path class="st6" d="M137,219.6v5.2c0.5-1.1,1.5-1.7,2.9-1.7c0.9,0,1.6,0.3,2.1,0.8c0.5,0.5,0.8,1.3,0.8,2.2v6.2h-1.4v-5.9
		c0-0.7-0.2-1.2-0.5-1.5c-0.3-0.4-0.8-0.5-1.3-0.5c-0.7,0-1.3,0.3-1.8,0.8c-0.5,0.5-0.8,1.3-0.8,2.2v5h-1.4v-12.7H137z"/>
	<path class="st6" d="M152,230.6v1.3c-0.7,0.4-1.6,0.6-2.6,0.6c-1.4,0-2.5-0.4-3.3-1.3c-0.8-0.8-1.3-2-1.3-3.4
		c0-1.5,0.4-2.6,1.1-3.4c0.8-0.8,1.7-1.3,2.9-1.3c1.1,0,2,0.4,2.7,1.1c0.7,0.7,1,1.8,1,3.1c0,0.4,0,0.7-0.1,1.1h-6.2
		c0.1,0.9,0.5,1.6,1,2.1c0.6,0.5,1.3,0.7,2.3,0.7C150.6,231.2,151.4,231,152,230.6z M151.1,227.2v-0.4c0-0.8-0.2-1.4-0.6-1.8
		c-0.4-0.4-1-0.7-1.7-0.7c-0.7,0-1.3,0.2-1.7,0.7c-0.5,0.5-0.8,1.2-0.8,2.1H151.1z"/>
	<path class="st6" d="M159.2,221c-0.2-0.2-0.3-0.4-0.3-0.7c0-0.3,0.1-0.5,0.3-0.7c0.2-0.2,0.4-0.3,0.7-0.3s0.5,0.1,0.7,0.3
		c0.2,0.2,0.3,0.4,0.3,0.7c0,0.3-0.1,0.5-0.3,0.7c-0.2,0.2-0.4,0.3-0.7,0.3S159.4,221.2,159.2,221z M159.2,232.4v-9.1h1.4v9.1H159.2
		z"/>
	<path class="st6" d="M164.7,223.2v1.5c0.5-1.1,1.4-1.6,2.6-1.6c1.4,0,2.3,0.6,2.7,1.8c0.3-0.6,0.6-1,1.1-1.3s1-0.5,1.6-0.5
		c0.9,0,1.7,0.3,2.1,0.8s0.7,1.3,0.7,2.2v6.3h-1.4v-5.9c0-1.4-0.6-2.1-1.7-2.1c-0.6,0-1.1,0.3-1.5,0.8c-0.5,0.5-0.7,1.3-0.7,2.2v5
		h-1.4v-5.9c0-1.4-0.6-2.1-1.7-2.1c-0.6,0-1.1,0.3-1.5,0.8c-0.5,0.5-0.7,1.3-0.7,2.2v5h-1.4v-9.1H164.7z"/>
	<path class="st6" d="M178.2,225.1v-1.4c0.7-0.4,1.6-0.6,2.7-0.6c2.3,0,3.4,1.2,3.4,3.5v5.8H183v-1.1c-0.5,0.8-1.3,1.2-2.6,1.2
		c-0.9,0-1.5-0.3-2.1-0.8s-0.8-1.1-0.8-1.9c0-0.9,0.3-1.6,1-2c0.7-0.5,1.6-0.7,2.7-0.7h1.7v-0.5c0-0.7-0.2-1.3-0.5-1.6
		c-0.3-0.4-0.9-0.5-1.6-0.5C179.8,224.4,179,224.6,178.2,225.1z M182.9,228.1h-1.6c-0.8,0-1.3,0.2-1.7,0.5c-0.4,0.3-0.6,0.7-0.6,1.1
		s0.1,0.8,0.5,1.1c0.3,0.3,0.7,0.4,1.3,0.4c0.6,0,1.2-0.2,1.5-0.5c0.4-0.4,0.6-0.8,0.6-1.4V228.1z"/>
	<path class="st6" d="M192.8,223.2h1.4v8.4c0,1.4-0.4,2.4-1.2,3.1s-1.8,1.1-3,1.1c-1.1,0-2-0.2-2.8-0.6v-1.4
		c0.8,0.4,1.7,0.7,2.7,0.7c0.9,0,1.6-0.2,2.1-0.7c0.5-0.5,0.8-1.2,0.8-2.2v-1c-0.6,1-1.5,1.5-2.7,1.5c-1,0-1.9-0.4-2.7-1.2
		c-0.7-0.8-1.1-1.8-1.1-3.2c0-1.4,0.3-2.5,1-3.3c0.7-0.9,1.6-1.3,2.7-1.3c1.2,0,2.2,0.5,2.8,1.6V223.2z M190.3,230.9
		c0.7,0,1.2-0.3,1.8-0.8c0.5-0.5,0.8-1.3,0.8-2.3c0-1.2-0.2-2-0.7-2.6c-0.5-0.6-1.1-0.8-1.7-0.8c-0.8,0-1.4,0.3-1.9,0.9
		c-0.5,0.6-0.7,1.4-0.7,2.4c0,1,0.3,1.8,0.8,2.3S189.7,230.9,190.3,230.9z"/>
	<path class="st6" d="M203.4,230.6v1.3c-0.7,0.4-1.6,0.6-2.6,0.6c-1.4,0-2.5-0.4-3.3-1.3c-0.8-0.8-1.3-2-1.3-3.4
		c0-1.5,0.4-2.6,1.1-3.4c0.8-0.8,1.7-1.3,2.9-1.3c1.1,0,2,0.4,2.7,1.1c0.7,0.7,1,1.8,1,3.1c0,0.4,0,0.7-0.1,1.1h-6.2
		c0.1,0.9,0.5,1.6,1,2.1c0.6,0.5,1.3,0.7,2.3,0.7C202,231.2,202.8,231,203.4,230.6z M202.6,227.2v-0.4c0-0.8-0.2-1.4-0.6-1.8
		c-0.4-0.4-1-0.7-1.7-0.7c-0.7,0-1.3,0.2-1.7,0.7c-0.5,0.5-0.8,1.2-0.8,2.1H202.6z"/>
	<path class="st6" d="M211.1,223.5v1.4c-0.6-0.3-1.3-0.5-2.3-0.5c-0.5,0-0.9,0.1-1.1,0.3c-0.3,0.2-0.4,0.5-0.4,0.9
		c0,0.2,0,0.4,0.1,0.6c0.1,0.2,0.2,0.3,0.5,0.5c0.2,0.2,0.4,0.3,0.5,0.3c0.1,0.1,0.4,0.2,0.7,0.3c0.8,0.3,1.4,0.7,1.8,1.1
		c0.4,0.4,0.6,0.9,0.6,1.6c0,0.8-0.3,1.4-0.8,1.9s-1.3,0.7-2.2,0.7c-1.1,0-2-0.2-2.7-0.6v-1.4c0.8,0.5,1.7,0.7,2.6,0.7
		c0.6,0,1-0.1,1.3-0.3c0.3-0.2,0.4-0.5,0.4-0.9c0-0.4-0.2-0.8-0.5-1c-0.3-0.2-0.8-0.5-1.6-0.8c-0.7-0.3-1.2-0.6-1.6-1
		c-0.4-0.4-0.6-0.9-0.6-1.6c0-0.8,0.3-1.4,0.9-1.8s1.3-0.7,2.1-0.7C209.8,223.1,210.6,223.3,211.1,223.5z"/>
	<path class="st6" d="M220.5,232.1l-3.7-8.9h1.6l1.2,3l1.6,4.1c0.1-0.3,0.6-1.7,1.4-4.1l1.1-3h1.5l-3.3,8.9c-0.5,1.2-1,2.1-1.7,2.6
		s-1.4,0.8-2.2,0.8c-0.3,0-0.6,0-0.8-0.1v-1.3c0.2,0,0.4,0.1,0.6,0.1C219.1,234.2,220,233.5,220.5,232.1z"/>
	<path class="st6" d="M230.6,232.5c-1.3,0-2.3-0.4-3.1-1.3c-0.8-0.9-1.1-2-1.1-3.3c0-1.4,0.4-2.5,1.2-3.4c0.8-0.9,1.8-1.4,3.1-1.4
		c1.4,0,2.4,0.4,3.2,1.3s1.1,2,1.1,3.4c0,1.4-0.4,2.5-1.2,3.4S231.9,232.5,230.6,232.5z M230.6,224.4c-0.9,0-1.5,0.3-2,1
		c-0.5,0.7-0.7,1.5-0.7,2.5c0,0.9,0.3,1.8,0.8,2.4s1.2,1,2,1c0.9,0,1.6-0.3,2.1-1c0.5-0.7,0.7-1.5,0.7-2.4c0-1-0.2-1.8-0.7-2.5
		C232.2,224.7,231.5,224.4,230.6,224.4z"/>
	<path class="st6" d="M242.6,223.2h1.4v9.1h-1.4v-1.6c-0.5,1.1-1.4,1.7-2.9,1.7c-0.9,0-1.6-0.3-2.1-0.8c-0.5-0.5-0.8-1.3-0.8-2.2
		v-6.3h1.4v5.9c0,0.7,0.2,1.2,0.5,1.5c0.3,0.3,0.8,0.5,1.4,0.5c0.8,0,1.4-0.3,1.8-0.8c0.4-0.5,0.7-1.2,0.7-2.1V223.2z"/>
	<path class="st6" d="M253,232.4l-2.8-9.1h1.5l0.9,3c0.3,1.1,0.6,2,0.8,2.8s0.3,1.3,0.4,1.6l0.1,0.4c0.2-0.8,0.6-2.3,1.3-4.7l0.9-3
		h1.5l0.9,3l1.4,4.8c0.2-0.7,0.6-2.3,1.4-4.8l0.9-3h1.5l-2.9,9.1h-1.7l-0.9-3l-1.3-4.6c-0.2,0.8-0.6,2.3-1.2,4.6l-0.8,3H253z"/>
	<path class="st6" d="M265.5,225.1v-1.4c0.7-0.4,1.6-0.6,2.7-0.6c2.3,0,3.4,1.2,3.4,3.5v5.8h-1.4v-1.1c-0.5,0.8-1.3,1.2-2.6,1.2
		c-0.9,0-1.5-0.3-2.1-0.8s-0.8-1.1-0.8-1.9c0-0.9,0.3-1.6,1-2c0.7-0.5,1.6-0.7,2.7-0.7h1.7v-0.5c0-0.7-0.2-1.3-0.5-1.6
		c-0.3-0.4-0.9-0.5-1.6-0.5C267.1,224.4,266.3,224.6,265.5,225.1z M270.2,228.1h-1.6c-0.8,0-1.3,0.2-1.7,0.5
		c-0.4,0.3-0.6,0.7-0.6,1.1s0.1,0.8,0.5,1.1c0.3,0.3,0.7,0.4,1.3,0.4c0.6,0,1.2-0.2,1.5-0.5c0.4-0.4,0.6-0.8,0.6-1.4V228.1z"/>
	<path class="st6" d="M275.6,223.2v1.6c0.5-1.1,1.5-1.7,2.9-1.7c0.9,0,1.6,0.3,2.1,0.8c0.5,0.5,0.8,1.3,0.8,2.2v6.3H280v-5.9
		c0-0.7-0.2-1.2-0.5-1.5c-0.3-0.4-0.8-0.5-1.3-0.5c-0.7,0-1.3,0.3-1.8,0.8c-0.5,0.5-0.7,1.3-0.7,2.2v5h-1.4v-9.1H275.6z"/>
	<path class="st6" d="M285.9,224.4v5.3c0,1,0.5,1.5,1.4,1.5c0.5,0,0.9-0.1,1.2-0.4v1.3c-0.4,0.2-0.8,0.3-1.3,0.3
		c-1.8,0-2.7-0.9-2.7-2.8v-5.3H283v-1.2h1.5V221h1.4v2.3h2.5v1.2H285.9z"/>
	<path class="st6" d="M296.9,224.4v5.3c0,1,0.5,1.5,1.4,1.5c0.5,0,0.9-0.1,1.2-0.4v1.3c-0.4,0.2-0.8,0.3-1.3,0.3
		c-1.8,0-2.7-0.9-2.7-2.8v-5.3H294v-1.2h1.5V221h1.4v2.3h2.5v1.2H296.9z"/>
	<path class="st6" d="M305.3,232.5c-1.3,0-2.3-0.4-3.1-1.3c-0.8-0.9-1.1-2-1.1-3.3c0-1.4,0.4-2.5,1.2-3.4c0.8-0.9,1.8-1.4,3.1-1.4
		c1.4,0,2.4,0.4,3.2,1.3s1.1,2,1.1,3.4c0,1.4-0.4,2.5-1.2,3.4C307.7,232.1,306.6,232.5,305.3,232.5z M305.3,224.4
		c-0.9,0-1.5,0.3-2,1c-0.5,0.7-0.7,1.5-0.7,2.5c0,0.9,0.3,1.8,0.8,2.4s1.2,1,2,1c0.9,0,1.6-0.3,2.1-1c0.5-0.7,0.7-1.5,0.7-2.4
		c0-1-0.2-1.8-0.7-2.5C307,224.7,306.2,224.4,305.3,224.4z"/>
	<path class="st6" d="M316.2,221c-0.2-0.2-0.3-0.4-0.3-0.7c0-0.3,0.1-0.5,0.3-0.7c0.2-0.2,0.4-0.3,0.7-0.3c0.3,0,0.5,0.1,0.7,0.3
		c0.2,0.2,0.3,0.4,0.3,0.7c0,0.3-0.1,0.5-0.3,0.7s-0.4,0.3-0.7,0.3C316.6,221.3,316.4,221.2,316.2,221z M316.2,232.4v-9.1h1.4v9.1
		H316.2z"/>
	<path class="st6" d="M321.7,223.2v1.6c0.5-1.1,1.5-1.7,2.9-1.7c0.9,0,1.6,0.3,2.1,0.8c0.5,0.5,0.8,1.3,0.8,2.2v6.3h-1.4v-5.9
		c0-0.7-0.2-1.2-0.5-1.5c-0.3-0.4-0.8-0.5-1.3-0.5c-0.7,0-1.3,0.3-1.8,0.8c-0.5,0.5-0.7,1.3-0.7,2.2v5h-1.4v-9.1H321.7z"/>
	<path class="st6" d="M330.9,227.8c0,1,0.3,1.8,0.9,2.5c0.6,0.7,1.4,1,2.5,1c0.7,0,1.3-0.2,1.9-0.6v1.3c-0.6,0.3-1.3,0.5-2.1,0.5
		c-1.4,0-2.6-0.5-3.4-1.4c-0.8-0.9-1.3-2-1.3-3.4c0-1.3,0.4-2.4,1.3-3.3c0.8-0.9,2-1.4,3.5-1.4c0.8,0,1.5,0.2,2.1,0.5v1.4
		c-0.6-0.4-1.2-0.6-1.9-0.6c-1,0-1.9,0.3-2.5,1S330.9,226.9,330.9,227.8z"/>
	<path class="st6" d="M338.5,232.4v-12.7h1.4v12.7H338.5z"/>
	<path class="st6" d="M348.3,223.2h1.4v9.1h-1.4v-1.6c-0.5,1.1-1.4,1.7-2.9,1.7c-0.9,0-1.6-0.3-2.1-0.8c-0.5-0.5-0.8-1.3-0.8-2.2
		v-6.3h1.4v5.9c0,0.7,0.2,1.2,0.5,1.5c0.3,0.3,0.8,0.5,1.4,0.5c0.8,0,1.4-0.3,1.8-0.8c0.4-0.5,0.7-1.2,0.7-2.1V223.2z"/>
	<path class="st6" d="M358.5,219.6h1.4v12.7h-1.4V231c-0.6,1-1.6,1.5-2.8,1.5c-1.2,0-2.2-0.4-2.9-1.3c-0.7-0.9-1-2-1-3.3
		c0-1.4,0.4-2.6,1.1-3.5c0.7-0.9,1.7-1.3,2.8-1.3c1.2,0,2.1,0.5,2.8,1.5V219.6z M355.9,231.2c0.7,0,1.4-0.3,1.9-0.8
		c0.5-0.6,0.8-1.4,0.8-2.6c0-1.2-0.3-2-0.8-2.5s-1.1-0.8-1.8-0.8c-0.8,0-1.4,0.3-1.9,0.9c-0.5,0.6-0.7,1.5-0.7,2.6
		c0,1,0.2,1.8,0.7,2.4C354.5,230.9,355.1,231.2,355.9,231.2z"/>
	<path class="st6" d="M369.3,230.6v1.3c-0.7,0.4-1.6,0.6-2.6,0.6c-1.4,0-2.5-0.4-3.3-1.3c-0.8-0.8-1.3-2-1.3-3.4
		c0-1.5,0.4-2.6,1.1-3.4c0.8-0.8,1.7-1.3,2.9-1.3c1.1,0,2,0.4,2.7,1.1c0.7,0.7,1,1.8,1,3.1c0,0.4,0,0.7-0.1,1.1h-6.2
		c0.1,0.9,0.5,1.6,1,2.1c0.6,0.5,1.3,0.7,2.3,0.7C367.8,231.2,368.6,231,369.3,230.6z M368.4,227.2v-0.4c0-0.8-0.2-1.4-0.6-1.8
		c-0.4-0.4-1-0.7-1.7-0.7c-0.7,0-1.3,0.2-1.7,0.7c-0.5,0.5-0.8,1.2-0.8,2.1H368.4z"/>
	<path class="st6" d="M377.9,219.6v5c0.7-1,1.6-1.5,2.8-1.5c1.2,0,2.1,0.4,2.8,1.3c0.7,0.9,1.1,2,1.1,3.5c0,1.3-0.3,2.4-1,3.3
		s-1.6,1.3-2.9,1.3c-1.2,0-2.2-0.5-2.8-1.5v1.3h-1.4v-12.7H377.9z M380.5,231.2c0.7,0,1.3-0.3,1.8-0.9c0.5-0.6,0.7-1.4,0.7-2.4
		c0-1.1-0.2-2-0.7-2.6c-0.5-0.6-1.1-0.9-1.9-0.9c-0.6,0-1.2,0.3-1.8,0.8s-0.8,1.4-0.8,2.5c0,1.2,0.3,2.1,0.8,2.6
		C379.2,230.9,379.8,231.2,380.5,231.2z"/>
	<path class="st6" d="M389.2,232.1l-3.7-8.9h1.6l1.2,3l1.6,4.1c0.1-0.3,0.6-1.7,1.4-4.1l1.1-3h1.5l-3.3,8.9c-0.5,1.2-1,2.1-1.7,2.6
		c-0.6,0.5-1.4,0.8-2.2,0.8c-0.3,0-0.6,0-0.8-0.1v-1.3c0.2,0,0.4,0.1,0.6,0.1C387.8,234.2,388.7,233.5,389.2,232.1z"/>
	<path class="st6" d="M400.8,227.8c0,1,0.3,1.8,0.9,2.5c0.6,0.7,1.4,1,2.5,1c0.7,0,1.3-0.2,1.9-0.6v1.3c-0.6,0.3-1.3,0.5-2.1,0.5
		c-1.4,0-2.6-0.5-3.4-1.4c-0.8-0.9-1.3-2-1.3-3.4c0-1.3,0.4-2.4,1.3-3.3c0.8-0.9,2-1.4,3.5-1.4c0.8,0,1.5,0.2,2.1,0.5v1.4
		c-0.6-0.4-1.2-0.6-1.9-0.6c-1,0-1.9,0.3-2.5,1S400.8,226.9,400.8,227.8z"/>
	<path class="st6" d="M408.5,232.4v-12.7h1.4v12.7H408.5z"/>
	<path class="st6" d="M412.7,221c-0.2-0.2-0.3-0.4-0.3-0.7c0-0.3,0.1-0.5,0.3-0.7c0.2-0.2,0.4-0.3,0.7-0.3c0.3,0,0.5,0.1,0.7,0.3
		c0.2,0.2,0.3,0.4,0.3,0.7c0,0.3-0.1,0.5-0.3,0.7c-0.2,0.2-0.4,0.3-0.7,0.3C413.1,221.3,412.9,221.2,412.7,221z M412.7,232.4v-9.1
		h1.4v9.1H412.7z"/>
	<path class="st6" d="M417.7,227.8c0,1,0.3,1.8,0.9,2.5c0.6,0.7,1.4,1,2.5,1c0.7,0,1.3-0.2,1.9-0.6v1.3c-0.6,0.3-1.3,0.5-2.1,0.5
		c-1.4,0-2.6-0.5-3.4-1.4c-0.8-0.9-1.3-2-1.3-3.4c0-1.3,0.4-2.4,1.3-3.3c0.8-0.9,2-1.4,3.5-1.4c0.8,0,1.5,0.2,2.1,0.5v1.4
		c-0.6-0.4-1.2-0.6-1.9-0.6c-1,0-1.9,0.3-2.5,1S417.7,226.9,417.7,227.8z"/>
	<path class="st6" d="M425.3,232.4v-12.7h1.4v12.7H425.3z M428.5,227.6l3.7,4.8h-1.7l-3.7-4.8l3.6-4.3h1.7L428.5,227.6z"/>
	<path class="st6" d="M434,221c-0.2-0.2-0.3-0.4-0.3-0.7c0-0.3,0.1-0.5,0.3-0.7c0.2-0.2,0.4-0.3,0.7-0.3c0.3,0,0.5,0.1,0.7,0.3
		c0.2,0.2,0.3,0.4,0.3,0.7c0,0.3-0.1,0.5-0.3,0.7c-0.2,0.2-0.4,0.3-0.7,0.3C434.4,221.3,434.2,221.2,434,221z M434,232.4v-9.1h1.4
		v9.1H434z"/>
	<path class="st6" d="M439.5,223.2v1.6c0.5-1.1,1.5-1.7,2.9-1.7c0.9,0,1.6,0.3,2.1,0.8s0.8,1.3,0.8,2.2v6.3h-1.4v-5.9
		c0-0.7-0.2-1.2-0.5-1.5c-0.3-0.4-0.8-0.5-1.3-0.5c-0.7,0-1.3,0.3-1.8,0.8c-0.5,0.5-0.7,1.3-0.7,2.2v5h-1.4v-9.1H439.5z"/>
	<path class="st6" d="M453.7,223.2h1.4v8.4c0,1.4-0.4,2.4-1.2,3.1c-0.8,0.7-1.8,1.1-3,1.1c-1.1,0-2-0.2-2.8-0.6v-1.4
		c0.8,0.4,1.7,0.7,2.7,0.7c0.9,0,1.6-0.2,2.1-0.7c0.5-0.5,0.8-1.2,0.8-2.2v-1c-0.6,1-1.5,1.5-2.7,1.5c-1,0-1.9-0.4-2.7-1.2
		c-0.7-0.8-1.1-1.8-1.1-3.2c0-1.4,0.3-2.5,1-3.3c0.7-0.9,1.6-1.3,2.7-1.3c1.2,0,2.2,0.5,2.8,1.6V223.2z M451.2,230.9
		c0.7,0,1.2-0.3,1.8-0.8c0.5-0.5,0.8-1.3,0.8-2.3c0-1.2-0.2-2-0.7-2.6s-1.1-0.8-1.7-0.8c-0.8,0-1.4,0.3-1.9,0.9
		c-0.5,0.6-0.7,1.4-0.7,2.4c0,1,0.3,1.8,0.8,2.3S450.6,230.9,451.2,230.9z"/>
	<path class="st6" d="M464,224.4v5.3c0,1,0.5,1.5,1.4,1.5c0.5,0,0.9-0.1,1.2-0.4v1.3c-0.4,0.2-0.8,0.3-1.3,0.3
		c-1.8,0-2.7-0.9-2.7-2.8v-5.3h-1.5v-1.2h1.5V221h1.4v2.3h2.5v1.2H464z"/>
	<path class="st6" d="M470.1,219.6v5.2c0.5-1.1,1.5-1.7,2.9-1.7c0.9,0,1.6,0.3,2.1,0.8s0.8,1.3,0.8,2.2v6.2h-1.4v-5.9
		c0-0.7-0.2-1.2-0.5-1.5c-0.3-0.4-0.8-0.5-1.3-0.5c-0.7,0-1.3,0.3-1.8,0.8c-0.5,0.5-0.8,1.3-0.8,2.2v5h-1.4v-12.7H470.1z"/>
	<path class="st6" d="M485.1,230.6v1.3c-0.7,0.4-1.6,0.6-2.6,0.6c-1.4,0-2.5-0.4-3.3-1.3c-0.8-0.8-1.3-2-1.3-3.4
		c0-1.5,0.4-2.6,1.1-3.4s1.7-1.3,2.9-1.3c1.1,0,2,0.4,2.7,1.1c0.7,0.7,1,1.8,1,3.1c0,0.4,0,0.7-0.1,1.1h-6.2c0.1,0.9,0.5,1.6,1,2.1
		c0.6,0.5,1.3,0.7,2.3,0.7C483.7,231.2,484.5,231,485.1,230.6z M484.3,227.2v-0.4c0-0.8-0.2-1.4-0.6-1.8c-0.4-0.4-1-0.7-1.7-0.7
		c-0.7,0-1.3,0.2-1.7,0.7s-0.8,1.2-0.8,2.1H484.3z"/>
	<path class="st6" d="M493.2,227.8c0,1,0.3,1.8,0.9,2.5c0.6,0.7,1.4,1,2.5,1c0.7,0,1.3-0.2,1.9-0.6v1.3c-0.6,0.3-1.3,0.5-2.1,0.5
		c-1.4,0-2.6-0.5-3.4-1.4c-0.8-0.9-1.3-2-1.3-3.4c0-1.3,0.4-2.4,1.3-3.3c0.8-0.9,2-1.4,3.5-1.4c0.8,0,1.5,0.2,2.1,0.5v1.4
		c-0.6-0.4-1.2-0.6-1.9-0.6c-1,0-1.9,0.3-2.5,1S493.2,226.9,493.2,227.8z"/>
	<path class="st6" d="M502.1,219.6v5.2c0.5-1.1,1.5-1.7,2.9-1.7c0.9,0,1.6,0.3,2.1,0.8s0.8,1.3,0.8,2.2v6.2h-1.4v-5.9
		c0-0.7-0.2-1.2-0.5-1.5c-0.3-0.4-0.8-0.5-1.3-0.5c-0.7,0-1.3,0.3-1.8,0.8c-0.5,0.5-0.8,1.3-0.8,2.2v5h-1.4v-12.7H502.1z"/>
	<path class="st6" d="M517.1,230.6v1.3c-0.7,0.4-1.6,0.6-2.6,0.6c-1.4,0-2.5-0.4-3.3-1.3c-0.8-0.8-1.3-2-1.3-3.4
		c0-1.5,0.4-2.6,1.1-3.4s1.7-1.3,2.9-1.3c1.1,0,2,0.4,2.7,1.1c0.7,0.7,1,1.8,1,3.1c0,0.4,0,0.7-0.1,1.1h-6.2c0.1,0.9,0.5,1.6,1,2.1
		c0.6,0.5,1.3,0.7,2.3,0.7C515.7,231.2,516.5,231,517.1,230.6z M516.2,227.2v-0.4c0-0.8-0.2-1.4-0.6-1.8c-0.4-0.4-1-0.7-1.7-0.7
		c-0.7,0-1.3,0.2-1.7,0.7s-0.8,1.2-0.8,2.1H516.2z"/>
	<path class="st6" d="M520.8,227.8c0,1,0.3,1.8,0.9,2.5c0.6,0.7,1.4,1,2.5,1c0.7,0,1.3-0.2,1.9-0.6v1.3c-0.6,0.3-1.3,0.5-2.1,0.5
		c-1.4,0-2.6-0.5-3.4-1.4c-0.8-0.9-1.3-2-1.3-3.4c0-1.3,0.4-2.4,1.3-3.3c0.8-0.9,2-1.4,3.5-1.4c0.8,0,1.5,0.2,2.1,0.5v1.4
		c-0.6-0.4-1.2-0.6-1.9-0.6c-1,0-1.9,0.3-2.5,1S520.8,226.9,520.8,227.8z"/>
	<path class="st6" d="M528.3,232.4v-12.7h1.4v12.7H528.3z M531.6,227.6l3.7,4.8h-1.7l-3.7-4.8l3.6-4.3h1.7L531.6,227.6z"/>
	<path class="st6" d="M542.8,219.6v5c0.7-1,1.6-1.5,2.8-1.5c1.2,0,2.1,0.4,2.8,1.3c0.7,0.9,1.1,2,1.1,3.5c0,1.3-0.3,2.4-1,3.3
		c-0.7,0.9-1.6,1.3-2.9,1.3c-1.2,0-2.2-0.5-2.8-1.5v1.3h-1.4v-12.7H542.8z M545.5,231.2c0.7,0,1.3-0.3,1.8-0.9
		c0.5-0.6,0.7-1.4,0.7-2.4c0-1.1-0.2-2-0.7-2.6c-0.5-0.6-1.1-0.9-1.9-0.9c-0.6,0-1.2,0.3-1.8,0.8s-0.8,1.4-0.8,2.5
		c0,1.2,0.3,2.1,0.8,2.6C544.1,230.9,544.7,231.2,545.5,231.2z"/>
	<path class="st6" d="M555.3,232.5c-1.3,0-2.3-0.4-3.1-1.3c-0.8-0.9-1.1-2-1.1-3.3c0-1.4,0.4-2.5,1.2-3.4c0.8-0.9,1.8-1.4,3.1-1.4
		c1.4,0,2.4,0.4,3.2,1.3s1.1,2,1.1,3.4c0,1.4-0.4,2.5-1.2,3.4C557.7,232.1,556.6,232.5,555.3,232.5z M555.3,224.4
		c-0.9,0-1.5,0.3-2,1c-0.5,0.7-0.7,1.5-0.7,2.5c0,0.9,0.3,1.8,0.8,2.4s1.2,1,2,1c0.9,0,1.6-0.3,2.1-1c0.5-0.7,0.7-1.5,0.7-2.4
		c0-1-0.2-1.8-0.7-2.5C557,224.7,556.3,224.4,555.3,224.4z"/>
	<path class="st6" d="M565.5,227.7l3.1,4.7h-1.6l-2.2-3.6l-2.3,3.6h-1.6l3.1-4.7l-2.9-4.5h1.6l2.1,3.4l2.1-3.4h1.6L565.5,227.7z"/>
</g>
<g class="st5">
	<path class="st6" d="M23.2,246.7v-1.4c0.7-0.4,1.6-0.6,2.7-0.6c2.3,0,3.4,1.2,3.4,3.5v5.8H28v-1.1c-0.5,0.8-1.3,1.2-2.6,1.2
		c-0.9,0-1.5-0.3-2.1-0.8s-0.8-1.1-0.8-1.9c0-0.9,0.3-1.6,1-2c0.7-0.5,1.6-0.7,2.7-0.7h1.7v-0.5c0-0.7-0.2-1.3-0.5-1.6
		c-0.3-0.4-0.9-0.5-1.6-0.5C24.9,246,24,246.2,23.2,246.7z M27.9,249.7h-1.6c-0.8,0-1.3,0.2-1.7,0.5c-0.4,0.3-0.6,0.7-0.6,1.1
		s0.1,0.8,0.5,1.1c0.3,0.3,0.7,0.4,1.3,0.4c0.6,0,1.2-0.2,1.5-0.5c0.4-0.4,0.6-0.8,0.6-1.4V249.7z"/>
	<path class="st6" d="M33.4,241.2v5c0.7-1,1.6-1.5,2.8-1.5c1.2,0,2.1,0.4,2.8,1.3c0.7,0.9,1.1,2,1.1,3.5c0,1.3-0.3,2.4-1,3.3
		c-0.7,0.9-1.6,1.3-2.9,1.3c-1.2,0-2.2-0.5-2.8-1.5v1.3h-1.4v-12.7H33.4z M36,252.8c0.7,0,1.3-0.3,1.8-0.9c0.5-0.6,0.7-1.4,0.7-2.4
		c0-1.1-0.2-2-0.7-2.6c-0.5-0.6-1.1-0.9-1.9-0.9c-0.6,0-1.2,0.3-1.8,0.8s-0.8,1.4-0.8,2.5c0,1.2,0.3,2.1,0.8,2.6
		C34.7,252.5,35.3,252.8,36,252.8z"/>
	<path class="st6" d="M45.9,254.1c-1.3,0-2.3-0.4-3.1-1.3c-0.8-0.9-1.1-2-1.1-3.3c0-1.4,0.4-2.5,1.2-3.4c0.8-0.9,1.8-1.4,3.1-1.4
		c1.4,0,2.4,0.4,3.2,1.3s1.1,2,1.1,3.4c0,1.4-0.4,2.5-1.2,3.4S47.2,254.1,45.9,254.1z M45.9,246c-0.9,0-1.5,0.3-2,1
		c-0.5,0.7-0.7,1.5-0.7,2.5c0,0.9,0.3,1.8,0.8,2.4s1.2,1,2,1c0.9,0,1.6-0.3,2.1-1c0.5-0.7,0.7-1.5,0.7-2.4c0-1-0.2-1.8-0.7-2.5
		C47.5,246.3,46.8,246,45.9,246z"/>
	<path class="st6" d="M54.6,254l-3.2-9.1h1.5l1.3,3.9l1.3,4.2c0.1-0.5,0.6-1.9,1.4-4.2l1.3-3.9h1.5l-3.3,9.1H54.6z"/>
	<path class="st6" d="M68,252.2v1.3c-0.7,0.4-1.6,0.6-2.6,0.6c-1.4,0-2.5-0.4-3.3-1.3c-0.8-0.8-1.3-2-1.3-3.4c0-1.5,0.4-2.6,1.1-3.4
		c0.8-0.8,1.7-1.3,2.9-1.3c1.1,0,2,0.4,2.7,1.1c0.7,0.7,1,1.8,1,3.1c0,0.4,0,0.7-0.1,1.1h-6.2c0.1,0.9,0.5,1.6,1,2.1
		c0.6,0.5,1.3,0.7,2.3,0.7C66.6,252.8,67.4,252.6,68,252.2z M67.2,248.8v-0.4c0-0.8-0.2-1.4-0.6-1.8c-0.4-0.4-1-0.7-1.7-0.7
		c-0.7,0-1.3,0.2-1.7,0.7c-0.5,0.5-0.8,1.2-0.8,2.1H67.2z"/>
	<path class="st6" d="M77.1,246v5.3c0,1,0.5,1.5,1.4,1.5c0.5,0,0.9-0.1,1.2-0.4v1.3c-0.4,0.2-0.8,0.3-1.3,0.3
		c-1.8,0-2.7-0.9-2.7-2.8V246h-1.5v-1.2h1.5v-2.3h1.4v2.3h2.5v1.2H77.1z"/>
	<path class="st6" d="M83.2,241.2v5.2c0.5-1.1,1.5-1.7,2.9-1.7c0.9,0,1.6,0.3,2.1,0.8c0.5,0.5,0.8,1.3,0.8,2.2v6.2h-1.4v-5.9
		c0-0.7-0.2-1.2-0.5-1.5c-0.3-0.4-0.8-0.5-1.3-0.5c-0.7,0-1.3,0.3-1.8,0.8c-0.5,0.5-0.8,1.3-0.8,2.2v5h-1.4v-12.7H83.2z"/>
	<path class="st6" d="M98.2,252.2v1.3c-0.7,0.4-1.6,0.6-2.6,0.6c-1.4,0-2.5-0.4-3.3-1.3c-0.8-0.8-1.3-2-1.3-3.4
		c0-1.5,0.4-2.6,1.1-3.4c0.8-0.8,1.7-1.3,2.9-1.3c1.1,0,2,0.4,2.7,1.1c0.7,0.7,1,1.8,1,3.1c0,0.4,0,0.7-0.1,1.1h-6.2
		c0.1,0.9,0.5,1.6,1,2.1c0.6,0.5,1.3,0.7,2.3,0.7C96.7,252.8,97.6,252.6,98.2,252.2z M97.3,248.8v-0.4c0-0.8-0.2-1.4-0.6-1.8
		c-0.4-0.4-1-0.7-1.7-0.7c-0.7,0-1.3,0.2-1.7,0.7c-0.5,0.5-0.8,1.2-0.8,2.1H97.3z"/>
	<path class="st6" d="M106.2,249.4c0,1,0.3,1.8,0.9,2.5c0.6,0.7,1.4,1,2.5,1c0.7,0,1.3-0.2,1.9-0.6v1.3c-0.6,0.3-1.3,0.5-2.1,0.5
		c-1.4,0-2.6-0.5-3.4-1.4s-1.3-2-1.3-3.4c0-1.3,0.4-2.4,1.3-3.3c0.8-0.9,2-1.4,3.5-1.4c0.8,0,1.5,0.2,2.1,0.5v1.4
		c-0.6-0.4-1.2-0.6-1.9-0.6c-1,0-1.9,0.3-2.5,1S106.2,248.5,106.2,249.4z"/>
	<path class="st6" d="M115.2,244.8v1.6c0.5-1.1,1.3-1.7,2.5-1.7c0.2,0,0.4,0,0.5,0v1.4c-0.3-0.1-0.5-0.1-0.8-0.1
		c-0.6,0-1.2,0.3-1.6,0.9c-0.4,0.6-0.6,1.3-0.6,2v5h-1.4l0-9.1H115.2z"/>
	<path class="st6" d="M126.3,252.2v1.3c-0.7,0.4-1.6,0.6-2.6,0.6c-1.4,0-2.5-0.4-3.3-1.3c-0.8-0.8-1.3-2-1.3-3.4
		c0-1.5,0.4-2.6,1.1-3.4c0.8-0.8,1.7-1.3,2.9-1.3c1.1,0,2,0.4,2.7,1.1c0.7,0.7,1,1.8,1,3.1c0,0.4,0,0.7-0.1,1.1h-6.2
		c0.1,0.9,0.5,1.6,1,2.1c0.6,0.5,1.3,0.7,2.3,0.7C124.9,252.8,125.7,252.6,126.3,252.2z M125.5,248.8v-0.4c0-0.8-0.2-1.4-0.6-1.8
		c-0.4-0.4-1-0.7-1.7-0.7c-0.7,0-1.3,0.2-1.7,0.7c-0.5,0.5-0.8,1.2-0.8,2.1H125.5z"/>
	<path class="st6" d="M129.2,246.7v-1.4c0.7-0.4,1.6-0.6,2.7-0.6c2.3,0,3.4,1.2,3.4,3.5v5.8H134v-1.1c-0.5,0.8-1.3,1.2-2.6,1.2
		c-0.9,0-1.5-0.3-2.1-0.8s-0.8-1.1-0.8-1.9c0-0.9,0.3-1.6,1-2c0.7-0.5,1.6-0.7,2.7-0.7h1.7v-0.5c0-0.7-0.2-1.3-0.5-1.6
		c-0.3-0.4-0.9-0.5-1.6-0.5C130.9,246,130,246.2,129.2,246.7z M133.9,249.7h-1.6c-0.8,0-1.3,0.2-1.7,0.5c-0.4,0.3-0.6,0.7-0.6,1.1
		s0.1,0.8,0.5,1.1c0.3,0.3,0.7,0.4,1.3,0.4c0.6,0,1.2-0.2,1.5-0.5c0.4-0.4,0.6-0.8,0.6-1.4V249.7z"/>
	<path class="st6" d="M139.9,246v5.3c0,1,0.5,1.5,1.4,1.5c0.5,0,0.9-0.1,1.2-0.4v1.3c-0.4,0.2-0.8,0.3-1.3,0.3
		c-1.8,0-2.7-0.9-2.7-2.8V246H137v-1.2h1.5v-2.3h1.4v2.3h2.5v1.2H139.9z"/>
	<path class="st6" d="M151.2,252.2v1.3c-0.7,0.4-1.6,0.6-2.6,0.6c-1.4,0-2.5-0.4-3.3-1.3c-0.8-0.8-1.3-2-1.3-3.4
		c0-1.5,0.4-2.6,1.1-3.4c0.8-0.8,1.7-1.3,2.9-1.3c1.1,0,2,0.4,2.7,1.1c0.7,0.7,1,1.8,1,3.1c0,0.4,0,0.7-0.1,1.1h-6.2
		c0.1,0.9,0.5,1.6,1,2.1c0.6,0.5,1.3,0.7,2.3,0.7C149.8,252.8,150.6,252.6,151.2,252.2z M150.3,248.8v-0.4c0-0.8-0.2-1.4-0.6-1.8
		c-0.4-0.4-1-0.7-1.7-0.7c-0.7,0-1.3,0.2-1.7,0.7c-0.5,0.5-0.8,1.2-0.8,2.1H150.3z"/>
	<path class="st6" d="M158.4,241.8h3.2c1.4,0,2.5,0.4,3.3,1.1c0.8,0.7,1.2,1.7,1.2,2.8c0,1.1-0.4,2-1.2,2.7
		c-0.8,0.7-1.9,1.1-3.2,1.1h-1.9v4.5h-1.5V241.8z M159.8,248.3h1.9c0.9,0,1.6-0.2,2.1-0.7c0.5-0.5,0.8-1.1,0.8-1.8
		c0-0.8-0.3-1.5-0.8-1.9c-0.5-0.5-1.3-0.7-2.3-0.7h-1.7V248.3z"/>
	<path class="st6" d="M168.2,241.8h3.6c1.8,0,3.3,0.6,4.4,1.7c1.1,1.1,1.7,2.5,1.7,4.3c0,1.8-0.5,3.2-1.6,4.4s-2.5,1.8-4.5,1.8h-3.7
		V241.8z M169.7,252.7h2.2c1.5,0,2.6-0.5,3.4-1.4s1.2-2.1,1.2-3.5c0-1.3-0.4-2.4-1.3-3.3c-0.9-0.9-2-1.3-3.3-1.3h-2.1V252.7z"/>
	<path class="st6" d="M186.8,243.1h-5.2v4.3h4.6v1.3h-4.6v5.3h-1.5v-12.1h6.7V243.1z"/>
	<path class="st6" d="M193.3,242.6c-0.2-0.2-0.3-0.4-0.3-0.7c0-0.3,0.1-0.5,0.3-0.7c0.2-0.2,0.4-0.3,0.7-0.3s0.5,0.1,0.7,0.3
		c0.2,0.2,0.3,0.4,0.3,0.7c0,0.3-0.1,0.5-0.3,0.7c-0.2,0.2-0.4,0.3-0.7,0.3S193.5,242.8,193.3,242.6z M193.3,254v-9.1h1.4v9.1H193.3
		z"/>
	<path class="st6" d="M198.4,249.4c0,1,0.3,1.8,0.9,2.5c0.6,0.7,1.4,1,2.5,1c0.7,0,1.3-0.2,1.9-0.6v1.3c-0.6,0.3-1.3,0.5-2.1,0.5
		c-1.4,0-2.6-0.5-3.4-1.4s-1.3-2-1.3-3.4c0-1.3,0.4-2.4,1.3-3.3c0.8-0.9,2-1.4,3.5-1.4c0.8,0,1.5,0.2,2.1,0.5v1.4
		c-0.6-0.4-1.2-0.6-1.9-0.6c-1,0-1.9,0.3-2.5,1S198.4,248.5,198.4,249.4z"/>
	<path class="st6" d="M209.6,254.1c-1.3,0-2.3-0.4-3.1-1.3c-0.8-0.9-1.1-2-1.1-3.3c0-1.4,0.4-2.5,1.2-3.4c0.8-0.9,1.8-1.4,3.1-1.4
		c1.4,0,2.4,0.4,3.2,1.3s1.1,2,1.1,3.4c0,1.4-0.4,2.5-1.2,3.4S210.9,254.1,209.6,254.1z M209.6,246c-0.9,0-1.5,0.3-2,1
		c-0.5,0.7-0.7,1.5-0.7,2.5c0,0.9,0.3,1.8,0.8,2.4s1.2,1,2,1c0.9,0,1.6-0.3,2.1-1c0.5-0.7,0.7-1.5,0.7-2.4c0-1-0.2-1.8-0.7-2.5
		C211.3,246.3,210.6,246,209.6,246z"/>
	<path class="st6" d="M217.4,244.8v1.6c0.5-1.1,1.5-1.7,2.9-1.7c0.9,0,1.6,0.3,2.1,0.8c0.5,0.5,0.8,1.3,0.8,2.2v6.3h-1.4v-5.9
		c0-0.7-0.2-1.2-0.5-1.5c-0.3-0.4-0.8-0.5-1.3-0.5c-0.7,0-1.3,0.3-1.8,0.8c-0.5,0.5-0.7,1.3-0.7,2.2v5H216v-9.1H217.4z"/>
	<path class="st6" d="M224.3,256.2l1.7-4h1.9l-2.3,4H224.3z"/>
	<path class="st6" d="M236.1,246v5.3c0,1,0.5,1.5,1.4,1.5c0.5,0,0.9-0.1,1.2-0.4v1.3c-0.4,0.2-0.8,0.3-1.3,0.3
		c-1.8,0-2.7-0.9-2.7-2.8V246h-1.5v-1.2h1.5v-2.3h1.4v2.3h2.5v1.2H236.1z"/>
	<path class="st6" d="M242.2,241.2v5.2c0.5-1.1,1.5-1.7,2.9-1.7c0.9,0,1.6,0.3,2.1,0.8c0.5,0.5,0.8,1.3,0.8,2.2v6.2h-1.4v-5.9
		c0-0.7-0.2-1.2-0.5-1.5c-0.3-0.4-0.8-0.5-1.3-0.5c-0.7,0-1.3,0.3-1.8,0.8c-0.5,0.5-0.8,1.3-0.8,2.2v5h-1.4v-12.7H242.2z"/>
	<path class="st6" d="M257.2,252.2v1.3c-0.7,0.4-1.6,0.6-2.6,0.6c-1.4,0-2.5-0.4-3.3-1.3c-0.8-0.8-1.3-2-1.3-3.4
		c0-1.5,0.4-2.6,1.1-3.4c0.8-0.8,1.7-1.3,2.9-1.3c1.1,0,2,0.4,2.7,1.1c0.7,0.7,1,1.8,1,3.1c0,0.4,0,0.7-0.1,1.1h-6.2
		c0.1,0.9,0.5,1.6,1,2.1c0.6,0.5,1.3,0.7,2.3,0.7C255.8,252.8,256.6,252.6,257.2,252.2z M256.3,248.8v-0.4c0-0.8-0.2-1.4-0.6-1.8
		c-0.4-0.4-1-0.7-1.7-0.7c-0.7,0-1.3,0.2-1.7,0.7c-0.5,0.5-0.8,1.2-0.8,2.1H256.3z"/>
	<path class="st6" d="M264.4,242.6c-0.2-0.2-0.3-0.4-0.3-0.7c0-0.3,0.1-0.5,0.3-0.7c0.2-0.2,0.4-0.3,0.7-0.3s0.5,0.1,0.7,0.3
		c0.2,0.2,0.3,0.4,0.3,0.7c0,0.3-0.1,0.5-0.3,0.7c-0.2,0.2-0.4,0.3-0.7,0.3S264.6,242.8,264.4,242.6z M264.4,254v-9.1h1.4v9.1H264.4
		z"/>
	<path class="st6" d="M269.9,244.8v1.5c0.5-1.1,1.4-1.6,2.6-1.6c1.4,0,2.3,0.6,2.7,1.8c0.3-0.6,0.6-1,1.1-1.3s1-0.5,1.6-0.5
		c0.9,0,1.7,0.3,2.1,0.8s0.7,1.3,0.7,2.2v6.3h-1.4v-5.9c0-1.4-0.6-2.1-1.7-2.1c-0.6,0-1.1,0.3-1.5,0.8c-0.5,0.5-0.7,1.3-0.7,2.2v5
		h-1.4v-5.9c0-1.4-0.6-2.1-1.7-2.1c-0.6,0-1.1,0.3-1.5,0.8c-0.5,0.5-0.7,1.3-0.7,2.2v5h-1.4v-9.1H269.9z"/>
	<path class="st6" d="M283.4,246.7v-1.4c0.7-0.4,1.6-0.6,2.7-0.6c2.3,0,3.4,1.2,3.4,3.5v5.8h-1.4v-1.1c-0.5,0.8-1.3,1.2-2.6,1.2
		c-0.9,0-1.5-0.3-2.1-0.8s-0.8-1.1-0.8-1.9c0-0.9,0.3-1.6,1-2c0.7-0.5,1.6-0.7,2.7-0.7h1.7v-0.5c0-0.7-0.2-1.3-0.5-1.6
		c-0.3-0.4-0.9-0.5-1.6-0.5C285.1,246,284.2,246.2,283.4,246.7z M288.2,249.7h-1.6c-0.8,0-1.3,0.2-1.7,0.5c-0.4,0.3-0.6,0.7-0.6,1.1
		s0.1,0.8,0.5,1.1c0.3,0.3,0.7,0.4,1.3,0.4c0.6,0,1.2-0.2,1.5-0.5c0.4-0.4,0.6-0.8,0.6-1.4V249.7z"/>
	<path class="st6" d="M298,244.8h1.4v8.4c0,1.4-0.4,2.4-1.2,3.1s-1.8,1.1-3,1.1c-1.1,0-2-0.2-2.8-0.6v-1.4c0.8,0.4,1.7,0.7,2.7,0.7
		c0.9,0,1.6-0.2,2.1-0.7c0.5-0.5,0.8-1.2,0.8-2.2v-1c-0.6,1-1.5,1.5-2.7,1.5c-1,0-1.9-0.4-2.7-1.2c-0.7-0.8-1.1-1.8-1.1-3.2
		c0-1.4,0.3-2.5,1-3.3c0.7-0.9,1.6-1.3,2.7-1.3c1.2,0,2.2,0.5,2.8,1.6V244.8z M295.5,252.5c0.7,0,1.2-0.3,1.8-0.8
		c0.5-0.5,0.8-1.3,0.8-2.3c0-1.2-0.2-2-0.7-2.6c-0.5-0.6-1.1-0.8-1.7-0.8c-0.8,0-1.4,0.3-1.9,0.9c-0.5,0.6-0.7,1.4-0.7,2.4
		c0,1,0.3,1.8,0.8,2.3S294.9,252.5,295.5,252.5z"/>
	<path class="st6" d="M308.6,252.2v1.3c-0.7,0.4-1.6,0.6-2.6,0.6c-1.4,0-2.5-0.4-3.3-1.3c-0.8-0.8-1.3-2-1.3-3.4
		c0-1.5,0.4-2.6,1.1-3.4c0.8-0.8,1.7-1.3,2.9-1.3c1.1,0,2,0.4,2.7,1.1c0.7,0.7,1,1.8,1,3.1c0,0.4,0,0.7-0.1,1.1h-6.2
		c0.1,0.9,0.5,1.6,1,2.1c0.6,0.5,1.3,0.7,2.3,0.7C307.2,252.8,308,252.6,308.6,252.2z M307.8,248.8v-0.4c0-0.8-0.2-1.4-0.6-1.8
		c-0.4-0.4-1-0.7-1.7-0.7c-0.7,0-1.3,0.2-1.7,0.7c-0.5,0.5-0.8,1.2-0.8,2.1H307.8z"/>
	<path class="st6" d="M317.7,254l-2.8-9.1h1.5l0.9,3c0.3,1.1,0.6,2,0.8,2.8s0.3,1.3,0.4,1.6l0.1,0.4c0.2-0.8,0.6-2.3,1.3-4.7l0.9-3
		h1.5l0.9,3l1.3,4.8c0.2-0.7,0.6-2.3,1.4-4.8l0.9-3h1.5l-2.9,9.1h-1.7l-0.9-3l-1.3-4.6c-0.2,0.8-0.6,2.3-1.2,4.6l-0.8,3H317.7z"/>
	<path class="st6" d="M330.1,242.6c-0.2-0.2-0.3-0.4-0.3-0.7c0-0.3,0.1-0.5,0.3-0.7c0.2-0.2,0.4-0.3,0.7-0.3c0.3,0,0.5,0.1,0.7,0.3
		c0.2,0.2,0.3,0.4,0.3,0.7c0,0.3-0.1,0.5-0.3,0.7c-0.2,0.2-0.4,0.3-0.7,0.3C330.5,242.9,330.3,242.8,330.1,242.6z M330.1,254v-9.1
		h1.4v9.1H330.1z"/>
	<path class="st6" d="M334.3,254v-12.7h1.4V254H334.3z"/>
	<path class="st6" d="M338.5,254v-12.7h1.4V254H338.5z"/>
	<path class="st6" d="M349,246v5.3c0,1,0.5,1.5,1.4,1.5c0.5,0,0.9-0.1,1.2-0.4v1.3c-0.4,0.2-0.8,0.3-1.3,0.3c-1.8,0-2.7-0.9-2.7-2.8
		V246h-1.5v-1.2h1.5v-2.3h1.4v2.3h2.5v1.2H349z"/>
	<path class="st6" d="M355,241.2v5.2c0.5-1.1,1.5-1.7,2.9-1.7c0.9,0,1.6,0.3,2.1,0.8s0.8,1.3,0.8,2.2v6.2h-1.4v-5.9
		c0-0.7-0.2-1.2-0.5-1.5c-0.3-0.4-0.8-0.5-1.3-0.5c-0.7,0-1.3,0.3-1.8,0.8c-0.5,0.5-0.8,1.3-0.8,2.2v5h-1.4v-12.7H355z"/>
	<path class="st6" d="M370,252.2v1.3c-0.7,0.4-1.6,0.6-2.6,0.6c-1.4,0-2.5-0.4-3.3-1.3c-0.8-0.8-1.3-2-1.3-3.4
		c0-1.5,0.4-2.6,1.1-3.4s1.7-1.3,2.9-1.3c1.1,0,2,0.4,2.7,1.1c0.7,0.7,1,1.8,1,3.1c0,0.4,0,0.7-0.1,1.1h-6.2c0.1,0.9,0.5,1.6,1,2.1
		c0.6,0.5,1.3,0.7,2.3,0.7C368.6,252.8,369.4,252.6,370,252.2z M369.2,248.8v-0.4c0-0.8-0.2-1.4-0.6-1.8c-0.4-0.4-1-0.7-1.7-0.7
		c-0.7,0-1.3,0.2-1.7,0.7s-0.8,1.2-0.8,2.1H369.2z"/>
	<path class="st6" d="M374.2,244.8v1.6c0.5-1.1,1.5-1.7,2.9-1.7c0.9,0,1.6,0.3,2.1,0.8c0.5,0.5,0.8,1.3,0.8,2.2v6.3h-1.4v-5.9
		c0-0.7-0.2-1.2-0.5-1.5c-0.3-0.4-0.8-0.5-1.3-0.5c-0.7,0-1.3,0.3-1.8,0.8c-0.5,0.5-0.7,1.3-0.7,2.2v5h-1.4v-9.1H374.2z"/>
	<path class="st6" d="M388.3,241.2v5c0.7-1,1.6-1.5,2.8-1.5c1.2,0,2.1,0.4,2.8,1.3c0.7,0.9,1.1,2,1.1,3.5c0,1.3-0.3,2.4-1,3.3
		c-0.7,0.9-1.6,1.3-2.9,1.3c-1.2,0-2.2-0.5-2.8-1.5v1.3h-1.4v-12.7H388.3z M391,252.8c0.7,0,1.3-0.3,1.8-0.9
		c0.5-0.6,0.7-1.4,0.7-2.4c0-1.1-0.2-2-0.7-2.6c-0.5-0.6-1.1-0.9-1.9-0.9c-0.6,0-1.2,0.3-1.8,0.8s-0.8,1.4-0.8,2.5
		c0,1.2,0.3,2.1,0.8,2.6C389.6,252.5,390.3,252.8,391,252.8z"/>
	<path class="st6" d="M403.8,252.2v1.3c-0.7,0.4-1.6,0.6-2.6,0.6c-1.4,0-2.5-0.4-3.3-1.3c-0.8-0.8-1.3-2-1.3-3.4
		c0-1.5,0.4-2.6,1.1-3.4c0.8-0.8,1.7-1.3,2.9-1.3c1.1,0,2,0.4,2.7,1.1c0.7,0.7,1,1.8,1,3.1c0,0.4,0,0.7-0.1,1.1H398
		c0.1,0.9,0.5,1.6,1,2.1c0.6,0.5,1.3,0.7,2.3,0.7C402.4,252.8,403.2,252.6,403.8,252.2z M402.9,248.8v-0.4c0-0.8-0.2-1.4-0.6-1.8
		c-0.4-0.4-1-0.7-1.7-0.7c-0.7,0-1.3,0.2-1.7,0.7c-0.5,0.5-0.8,1.2-0.8,2.1H402.9z"/>
	<path class="st6" d="M415.9,245.1v1.4c-0.6-0.3-1.3-0.5-2.3-0.5c-0.5,0-0.9,0.1-1.1,0.3c-0.3,0.2-0.4,0.5-0.4,0.9
		c0,0.2,0,0.4,0.1,0.6s0.2,0.3,0.5,0.5c0.2,0.2,0.4,0.3,0.5,0.3c0.1,0.1,0.4,0.2,0.7,0.3c0.8,0.3,1.4,0.7,1.8,1.1
		c0.4,0.4,0.6,0.9,0.6,1.6c0,0.8-0.3,1.4-0.8,1.9s-1.3,0.7-2.2,0.7c-1.1,0-2-0.2-2.7-0.6v-1.4c0.8,0.5,1.7,0.7,2.6,0.7
		c0.6,0,1-0.1,1.3-0.3c0.3-0.2,0.4-0.5,0.4-0.9c0-0.4-0.2-0.8-0.5-1s-0.8-0.5-1.6-0.8c-0.7-0.3-1.2-0.6-1.6-1
		c-0.4-0.4-0.6-0.9-0.6-1.6c0-0.8,0.3-1.4,0.9-1.8c0.6-0.5,1.3-0.7,2.1-0.7C414.5,244.7,415.3,244.9,415.9,245.1z"/>
	<path class="st6" d="M418.5,246.7v-1.4c0.7-0.4,1.6-0.6,2.7-0.6c2.3,0,3.4,1.2,3.4,3.5v5.8h-1.4v-1.1c-0.5,0.8-1.3,1.2-2.6,1.2
		c-0.9,0-1.5-0.3-2.1-0.8c-0.5-0.5-0.8-1.1-0.8-1.9c0-0.9,0.3-1.6,1-2c0.7-0.5,1.6-0.7,2.7-0.7h1.7v-0.5c0-0.7-0.2-1.3-0.5-1.6
		c-0.3-0.4-0.9-0.5-1.6-0.5C420.1,246,419.3,246.2,418.5,246.7z M423.2,249.7h-1.6c-0.8,0-1.3,0.2-1.7,0.5s-0.6,0.7-0.6,1.1
		s0.2,0.8,0.5,1.1c0.3,0.3,0.7,0.4,1.3,0.4c0.6,0,1.2-0.2,1.5-0.5c0.4-0.4,0.6-0.8,0.6-1.4V249.7z"/>
	<path class="st6" d="M429.5,254l-3.2-9.1h1.5l1.3,3.9l1.3,4.2c0.1-0.5,0.6-1.9,1.3-4.2l1.3-3.9h1.5l-3.3,9.1H429.5z"/>
	<path class="st6" d="M442.9,252.2v1.3c-0.7,0.4-1.6,0.6-2.6,0.6c-1.4,0-2.5-0.4-3.3-1.3c-0.8-0.8-1.3-2-1.3-3.4
		c0-1.5,0.4-2.6,1.1-3.4s1.7-1.3,2.9-1.3c1.1,0,2,0.4,2.7,1.1c0.7,0.7,1,1.8,1,3.1c0,0.4,0,0.7-0.1,1.1h-6.2c0.1,0.9,0.5,1.6,1,2.1
		c0.6,0.5,1.3,0.7,2.3,0.7C441.5,252.8,442.3,252.6,442.9,252.2z M442.1,248.8v-0.4c0-0.8-0.2-1.4-0.6-1.8c-0.4-0.4-1-0.7-1.7-0.7
		c-0.7,0-1.3,0.2-1.7,0.7s-0.8,1.2-0.8,2.1H442.1z"/>
	<path class="st6" d="M451.8,241.2h1.4V254h-1.4v-1.3c-0.6,1-1.6,1.5-2.8,1.5c-1.2,0-2.2-0.4-2.9-1.3s-1-2-1-3.3
		c0-1.4,0.4-2.6,1.1-3.5c0.7-0.9,1.7-1.3,2.8-1.3c1.2,0,2.1,0.5,2.8,1.5V241.2z M449.1,252.8c0.7,0,1.4-0.3,1.9-0.8
		c0.5-0.6,0.8-1.4,0.8-2.6c0-1.2-0.3-2-0.8-2.5s-1.1-0.8-1.8-0.8c-0.8,0-1.4,0.3-1.9,0.9c-0.5,0.6-0.7,1.5-0.7,2.6
		c0,1,0.2,1.8,0.7,2.4C447.8,252.5,448.4,252.8,449.1,252.8z"/>
	<path class="st6" d="M462.2,246v5.3c0,1,0.5,1.5,1.4,1.5c0.5,0,0.9-0.1,1.2-0.4v1.3c-0.4,0.2-0.8,0.3-1.3,0.3
		c-1.8,0-2.7-0.9-2.7-2.8V246h-1.5v-1.2h1.5v-2.3h1.4v2.3h2.5v1.2H462.2z"/>
	<path class="st6" d="M470.6,254.1c-1.3,0-2.3-0.4-3.1-1.3c-0.8-0.9-1.1-2-1.1-3.3c0-1.4,0.4-2.5,1.2-3.4c0.8-0.9,1.8-1.4,3.1-1.4
		c1.4,0,2.4,0.4,3.2,1.3s1.1,2,1.1,3.4c0,1.4-0.4,2.5-1.2,3.4C473,253.7,472,254.1,470.6,254.1z M470.6,246c-0.9,0-1.5,0.3-2,1
		c-0.5,0.7-0.7,1.5-0.7,2.5c0,0.9,0.3,1.8,0.8,2.4s1.2,1,2,1c0.9,0,1.6-0.3,2.1-1c0.5-0.7,0.7-1.5,0.7-2.4c0-1-0.2-1.8-0.7-2.5
		C472.3,246.3,471.6,246,470.6,246z"/>
	<path class="st6" d="M483.9,253.7l-3.7-8.9h1.6l1.2,3l1.6,4.1c0.1-0.3,0.6-1.7,1.4-4.1l1.1-3h1.5l-3.3,8.9c-0.5,1.2-1,2.1-1.7,2.6
		c-0.6,0.5-1.4,0.8-2.2,0.8c-0.3,0-0.6,0-0.8-0.1v-1.3c0.2,0,0.4,0.1,0.6,0.1C482.6,255.8,483.4,255.1,483.9,253.7z"/>
	<path class="st6" d="M494,254.1c-1.3,0-2.3-0.4-3.1-1.3c-0.8-0.9-1.1-2-1.1-3.3c0-1.4,0.4-2.5,1.2-3.4c0.8-0.9,1.8-1.4,3.1-1.4
		c1.4,0,2.4,0.4,3.2,1.3s1.1,2,1.1,3.4c0,1.4-0.4,2.5-1.2,3.4C496.4,253.7,495.3,254.1,494,254.1z M494,246c-0.9,0-1.5,0.3-2,1
		c-0.5,0.7-0.7,1.5-0.7,2.5c0,0.9,0.3,1.8,0.8,2.4s1.2,1,2,1c0.9,0,1.6-0.3,2.1-1c0.5-0.7,0.7-1.5,0.7-2.4c0-1-0.2-1.8-0.7-2.5
		C495.7,246.3,495,246,494,246z"/>
	<path class="st6" d="M506.1,244.8h1.4v9.1h-1.4v-1.6c-0.5,1.1-1.4,1.7-2.9,1.7c-0.9,0-1.6-0.3-2.1-0.8c-0.5-0.5-0.8-1.3-0.8-2.2
		v-6.3h1.4v5.9c0,0.7,0.2,1.2,0.5,1.5c0.3,0.3,0.8,0.5,1.4,0.5c0.8,0,1.4-0.3,1.8-0.8c0.4-0.5,0.7-1.2,0.7-2.1V244.8z"/>
	<path class="st6" d="M511.5,244.8v1.6c0.5-1.1,1.3-1.7,2.5-1.7c0.2,0,0.4,0,0.5,0v1.4c-0.3-0.1-0.5-0.1-0.8-0.1
		c-0.6,0-1.2,0.3-1.6,0.9c-0.4,0.6-0.6,1.3-0.6,2v5h-1.4l0-9.1H511.5z"/>
	<path class="st6" d="M524.1,254.1c-1.3,0-2.3-0.4-3.1-1.3s-1.1-2-1.1-3.3c0-1.4,0.4-2.5,1.2-3.4s1.8-1.4,3.1-1.4
		c1.4,0,2.4,0.4,3.2,1.3s1.1,2,1.1,3.4c0,1.4-0.4,2.5-1.2,3.4C526.5,253.7,525.4,254.1,524.1,254.1z M524.1,246c-0.9,0-1.5,0.3-2,1
		c-0.5,0.7-0.7,1.5-0.7,2.5c0,0.9,0.3,1.8,0.8,2.4s1.2,1,2,1c0.9,0,1.6-0.3,2.1-1c0.5-0.7,0.7-1.5,0.7-2.4c0-1-0.2-1.8-0.7-2.5
		S525,246,524.1,246z"/>
	<path class="st6" d="M532.4,254l-2.8-9.1h1.5l0.9,3c0.3,1.1,0.6,2,0.8,2.8s0.3,1.3,0.4,1.6l0.1,0.4c0.2-0.8,0.6-2.3,1.3-4.7l0.9-3
		h1.5l0.9,3l1.4,4.8c0.2-0.7,0.6-2.3,1.4-4.8l0.9-3h1.5l-2.9,9.1h-1.7l-0.9-3l-1.3-4.6c-0.2,0.8-0.6,2.3-1.2,4.6l-0.8,3H532.4z"/>
	<path class="st6" d="M546.2,244.8v1.6c0.5-1.1,1.5-1.7,2.9-1.7c0.9,0,1.6,0.3,2.1,0.8c0.5,0.5,0.8,1.3,0.8,2.2v6.3h-1.4v-5.9
		c0-0.7-0.2-1.2-0.5-1.5c-0.3-0.4-0.8-0.5-1.3-0.5c-0.7,0-1.3,0.3-1.8,0.8c-0.5,0.5-0.7,1.3-0.7,2.2v5h-1.4v-9.1H546.2z"/>
	<path class="st6" d="M558.9,241.8h3.2c1.4,0,2.5,0.4,3.3,1.1c0.8,0.7,1.2,1.7,1.2,2.8c0,1.1-0.4,2-1.2,2.7s-1.9,1.1-3.2,1.1h-1.9
		v4.5h-1.5V241.8z M560.4,248.3h1.9c0.9,0,1.6-0.2,2.1-0.7c0.5-0.5,0.8-1.1,0.8-1.8c0-0.8-0.3-1.5-0.8-1.9c-0.5-0.5-1.3-0.7-2.3-0.7
		h-1.7V248.3z"/>
	<path class="st6" d="M568.7,241.8h3.6c1.8,0,3.3,0.6,4.4,1.7c1.1,1.1,1.7,2.5,1.7,4.3c0,1.8-0.5,3.2-1.6,4.4
		c-1.1,1.2-2.5,1.8-4.5,1.8h-3.7V241.8z M570.2,252.7h2.2c1.5,0,2.6-0.5,3.4-1.4c0.8-0.9,1.2-2.1,1.2-3.5c0-1.3-0.4-2.4-1.3-3.3
		c-0.9-0.9-2-1.3-3.3-1.3h-2.1V252.7z"/>
	<path class="st6" d="M587.3,243.1h-5.2v4.3h4.6v1.3h-4.6v5.3h-1.5v-12.1h6.7V243.1z"/>
	<path class="st6" d="M588.8,253.8c-0.2-0.2-0.3-0.5-0.3-0.8s0.1-0.6,0.3-0.8s0.5-0.3,0.8-0.3s0.6,0.1,0.8,0.3s0.3,0.5,0.3,0.8
		s-0.1,0.6-0.3,0.8s-0.5,0.3-0.8,0.3S589,254,588.8,253.8z"/>
</g>
<g class="st5">
	<path class="st6" d="M29.5,285.2H31l1.3,4.3l1.8,6.2c0.6-2.7,1-4.7,1.3-6.1l1-4.5H38l-2.8,12.1h-1.9l-1.2-3.8l-1.8-6.1
		c-0.4,1.4-0.9,3.4-1.7,6.1l-1.1,3.8h-1.9L22.4,285h1.5l1.1,4.5l1.5,6.1c0.7-2.5,1.2-4.5,1.7-6.1L29.5,285.2z"/>
	<path class="st6" d="M41.3,284.4v5.2c0.5-1.1,1.5-1.7,2.9-1.7c0.9,0,1.6,0.3,2.1,0.8c0.5,0.5,0.8,1.3,0.8,2.2v6.2h-1.4v-5.9
		c0-0.7-0.2-1.2-0.5-1.5c-0.3-0.4-0.8-0.5-1.3-0.5c-0.7,0-1.3,0.3-1.8,0.8c-0.5,0.5-0.8,1.3-0.8,2.2v5h-1.4v-12.7H41.3z"/>
	<path class="st6" d="M56.3,295.4v1.3c-0.7,0.4-1.6,0.6-2.6,0.6c-1.4,0-2.5-0.4-3.3-1.3c-0.8-0.8-1.3-2-1.3-3.4
		c0-1.5,0.4-2.6,1.1-3.4c0.8-0.8,1.7-1.3,2.9-1.3c1.1,0,2,0.4,2.7,1.1c0.7,0.7,1,1.8,1,3.1c0,0.4,0,0.7-0.1,1.1h-6.2
		c0.1,0.9,0.5,1.6,1,2.1c0.6,0.5,1.3,0.7,2.3,0.7C54.9,296,55.7,295.8,56.3,295.4z M55.5,292v-0.4c0-0.8-0.2-1.4-0.6-1.8
		c-0.4-0.4-1-0.7-1.7-0.7c-0.7,0-1.3,0.2-1.7,0.7c-0.5,0.5-0.8,1.2-0.8,2.1H55.5z"/>
	<path class="st6" d="M60.4,288v1.6c0.5-1.1,1.5-1.7,2.9-1.7c0.9,0,1.6,0.3,2.1,0.8c0.5,0.5,0.8,1.3,0.8,2.2v6.3h-1.4v-5.9
		c0-0.7-0.2-1.2-0.5-1.5c-0.3-0.4-0.8-0.5-1.3-0.5c-0.7,0-1.3,0.3-1.8,0.8c-0.5,0.5-0.7,1.3-0.7,2.2v5H59V288H60.4z"/>
	<path class="st6" d="M79.8,288v9.1h-1.4v-8h-3.1v8h-1.4v-8h-1.6V288h1.6v-0.8c0-0.9,0.2-1.6,0.7-2.1c0.5-0.5,1.2-0.8,2-0.8
		c0.9,0,1.7,0.2,2.5,0.6v1.3c-0.8-0.4-1.7-0.6-2.4-0.6c-0.9,0-1.4,0.5-1.4,1.6v0.8H79.8z"/>
	<path class="st6" d="M83.8,288v1.6c0.5-1.1,1.5-1.7,2.9-1.7c0.9,0,1.6,0.3,2.1,0.8c0.5,0.5,0.8,1.3,0.8,2.2v6.3h-1.4v-5.9
		c0-0.7-0.2-1.2-0.5-1.5c-0.3-0.4-0.8-0.5-1.3-0.5c-0.7,0-1.3,0.3-1.8,0.8c-0.5,0.5-0.7,1.3-0.7,2.2v5h-1.4V288H83.8z"/>
	<path class="st6" d="M92.2,285.8c-0.2-0.2-0.3-0.4-0.3-0.7c0-0.3,0.1-0.5,0.3-0.7c0.2-0.2,0.4-0.3,0.7-0.3s0.5,0.1,0.7,0.3
		c0.2,0.2,0.3,0.4,0.3,0.7c0,0.3-0.1,0.5-0.3,0.7c-0.2,0.2-0.4,0.3-0.7,0.3S92.4,286,92.2,285.8z M92.2,297.2V288h1.4v9.1H92.2z"/>
	<path class="st6" d="M101.3,288.3v1.4c-0.6-0.3-1.3-0.5-2.3-0.5c-0.5,0-0.9,0.1-1.1,0.3c-0.3,0.2-0.4,0.5-0.4,0.9
		c0,0.2,0,0.4,0.1,0.6c0.1,0.2,0.2,0.3,0.5,0.5c0.2,0.2,0.4,0.3,0.5,0.3c0.1,0.1,0.4,0.2,0.7,0.3c0.8,0.3,1.4,0.7,1.8,1.1
		c0.4,0.4,0.6,0.9,0.6,1.6c0,0.8-0.3,1.4-0.8,1.9s-1.3,0.7-2.2,0.7c-1.1,0-2-0.2-2.7-0.6v-1.4c0.8,0.5,1.7,0.7,2.6,0.7
		c0.6,0,1-0.1,1.3-0.3c0.3-0.2,0.4-0.5,0.4-0.9c0-0.4-0.2-0.8-0.5-1c-0.3-0.2-0.8-0.5-1.6-0.8c-0.7-0.3-1.2-0.6-1.6-1
		c-0.4-0.4-0.6-0.9-0.6-1.6c0-0.8,0.3-1.4,0.9-1.8s1.3-0.7,2.1-0.7C99.9,287.9,100.7,288.1,101.3,288.3z"/>
	<path class="st6" d="M105.1,284.4v5.2c0.5-1.1,1.5-1.7,2.9-1.7c0.9,0,1.6,0.3,2.1,0.8c0.5,0.5,0.8,1.3,0.8,2.2v6.2h-1.4v-5.9
		c0-0.7-0.2-1.2-0.5-1.5c-0.3-0.4-0.8-0.5-1.3-0.5c-0.7,0-1.3,0.3-1.8,0.8c-0.5,0.5-0.8,1.3-0.8,2.2v5h-1.4v-12.7H105.1z"/>
	<path class="st6" d="M120.1,295.4v1.3c-0.7,0.4-1.6,0.6-2.6,0.6c-1.4,0-2.5-0.4-3.3-1.3c-0.8-0.8-1.3-2-1.3-3.4
		c0-1.5,0.4-2.6,1.1-3.4c0.8-0.8,1.7-1.3,2.9-1.3c1.1,0,2,0.4,2.7,1.1c0.7,0.7,1,1.8,1,3.1c0,0.4,0,0.7-0.1,1.1h-6.2
		c0.1,0.9,0.5,1.6,1,2.1c0.6,0.5,1.3,0.7,2.3,0.7C118.7,296,119.5,295.8,120.1,295.4z M119.3,292v-0.4c0-0.8-0.2-1.4-0.6-1.8
		c-0.4-0.4-1-0.7-1.7-0.7c-0.7,0-1.3,0.2-1.7,0.7c-0.5,0.5-0.8,1.2-0.8,2.1H119.3z"/>
	<path class="st6" d="M129,284.4h1.4v12.7H129v-1.3c-0.6,1-1.6,1.5-2.8,1.5c-1.2,0-2.2-0.4-2.9-1.3c-0.7-0.9-1-2-1-3.3
		c0-1.4,0.4-2.6,1.1-3.5s1.7-1.3,2.8-1.3c1.2,0,2.1,0.5,2.8,1.5V284.4z M126.3,296c0.7,0,1.4-0.3,1.9-0.8c0.5-0.6,0.8-1.4,0.8-2.6
		c0-1.2-0.3-2-0.8-2.5s-1.1-0.8-1.8-0.8c-0.8,0-1.4,0.3-1.9,0.9c-0.5,0.6-0.7,1.5-0.7,2.6c0,1,0.2,1.8,0.7,2.4
		C125,295.7,125.6,296,126.3,296z"/>
	<path class="st6" d="M142.4,288.3v1.4c-0.6-0.3-1.3-0.5-2.3-0.5c-0.5,0-0.9,0.1-1.1,0.3c-0.3,0.2-0.4,0.5-0.4,0.9
		c0,0.2,0,0.4,0.1,0.6c0.1,0.2,0.2,0.3,0.5,0.5c0.2,0.2,0.4,0.3,0.5,0.3c0.1,0.1,0.4,0.2,0.7,0.3c0.8,0.3,1.4,0.7,1.8,1.1
		c0.4,0.4,0.6,0.9,0.6,1.6c0,0.8-0.3,1.4-0.8,1.9s-1.3,0.7-2.2,0.7c-1.1,0-2-0.2-2.7-0.6v-1.4c0.8,0.5,1.7,0.7,2.6,0.7
		c0.6,0,1-0.1,1.3-0.3c0.3-0.2,0.4-0.5,0.4-0.9c0-0.4-0.2-0.8-0.5-1c-0.3-0.2-0.8-0.5-1.6-0.8c-0.7-0.3-1.2-0.6-1.6-1
		c-0.4-0.4-0.6-0.9-0.6-1.6c0-0.8,0.3-1.4,0.9-1.8s1.3-0.7,2.1-0.7C141.1,287.9,141.8,288.1,142.4,288.3z"/>
	<path class="st6" d="M151.5,295.4v1.3c-0.7,0.4-1.6,0.6-2.6,0.6c-1.4,0-2.5-0.4-3.3-1.3c-0.8-0.8-1.3-2-1.3-3.4
		c0-1.5,0.4-2.6,1.1-3.4c0.8-0.8,1.7-1.3,2.9-1.3c1.1,0,2,0.4,2.7,1.1c0.7,0.7,1,1.8,1,3.1c0,0.4,0,0.7-0.1,1.1h-6.2
		c0.1,0.9,0.5,1.6,1,2.1c0.6,0.5,1.3,0.7,2.3,0.7C150.1,296,150.9,295.8,151.5,295.4z M150.7,292v-0.4c0-0.8-0.2-1.4-0.6-1.8
		c-0.4-0.4-1-0.7-1.7-0.7c-0.7,0-1.3,0.2-1.7,0.7c-0.5,0.5-0.8,1.2-0.8,2.1H150.7z"/>
	<path class="st6" d="M154.3,297.2v-12.7h1.4v12.7H154.3z"/>
	<path class="st6" d="M165.1,295.4v1.3c-0.7,0.4-1.6,0.6-2.6,0.6c-1.4,0-2.5-0.4-3.3-1.3c-0.8-0.8-1.3-2-1.3-3.4
		c0-1.5,0.4-2.6,1.1-3.4c0.8-0.8,1.7-1.3,2.9-1.3c1.1,0,2,0.4,2.7,1.1c0.7,0.7,1,1.8,1,3.1c0,0.4,0,0.7-0.1,1.1h-6.2
		c0.1,0.9,0.5,1.6,1,2.1c0.6,0.5,1.3,0.7,2.3,0.7C163.7,296,164.5,295.8,165.1,295.4z M164.3,292v-0.4c0-0.8-0.2-1.4-0.6-1.8
		c-0.4-0.4-1-0.7-1.7-0.7c-0.7,0-1.3,0.2-1.7,0.7c-0.5,0.5-0.8,1.2-0.8,2.1H164.3z"/>
	<path class="st6" d="M168.8,292.6c0,1,0.3,1.8,0.9,2.5c0.6,0.7,1.4,1,2.5,1c0.7,0,1.3-0.2,1.9-0.6v1.3c-0.6,0.3-1.3,0.5-2.1,0.5
		c-1.4,0-2.6-0.5-3.4-1.4s-1.3-2-1.3-3.4c0-1.3,0.4-2.4,1.3-3.3c0.8-0.9,2-1.4,3.5-1.4c0.8,0,1.5,0.2,2.1,0.5v1.4
		c-0.6-0.4-1.2-0.6-1.9-0.6c-1,0-1.9,0.3-2.5,1S168.8,291.7,168.8,292.6z"/>
	<path class="st6" d="M178.3,289.2v5.3c0,1,0.5,1.5,1.4,1.5c0.5,0,0.9-0.1,1.2-0.4v1.3c-0.4,0.2-0.8,0.3-1.3,0.3
		c-1.8,0-2.7-0.9-2.7-2.8v-5.3h-1.5V288h1.5v-2.3h1.4v2.3h2.5v1.2H178.3z"/>
	<path class="st6" d="M183.1,285.8c-0.2-0.2-0.3-0.4-0.3-0.7c0-0.3,0.1-0.5,0.3-0.7c0.2-0.2,0.4-0.3,0.7-0.3s0.5,0.1,0.7,0.3
		c0.2,0.2,0.3,0.4,0.3,0.7c0,0.3-0.1,0.5-0.3,0.7c-0.2,0.2-0.4,0.3-0.7,0.3S183.3,286,183.1,285.8z M183,297.2V288h1.4v9.1H183z"/>
	<path class="st6" d="M188.6,288v1.6c0.5-1.1,1.5-1.7,2.9-1.7c0.9,0,1.6,0.3,2.1,0.8c0.5,0.5,0.8,1.3,0.8,2.2v6.3h-1.4v-5.9
		c0-0.7-0.2-1.2-0.5-1.5c-0.3-0.4-0.8-0.5-1.3-0.5c-0.7,0-1.3,0.3-1.8,0.8c-0.5,0.5-0.7,1.3-0.7,2.2v5h-1.4V288H188.6z"/>
	<path class="st6" d="M202.8,288h1.4v8.4c0,1.4-0.4,2.4-1.2,3.1s-1.8,1.1-3,1.1c-1.1,0-2-0.2-2.8-0.6v-1.4c0.8,0.4,1.7,0.7,2.7,0.7
		c0.9,0,1.6-0.2,2.1-0.7c0.5-0.5,0.8-1.2,0.8-2.2v-1c-0.6,1-1.5,1.5-2.7,1.5c-1,0-1.9-0.4-2.7-1.2c-0.7-0.8-1.1-1.8-1.1-3.2
		c0-1.4,0.3-2.5,1-3.3c0.7-0.9,1.6-1.3,2.7-1.3c1.2,0,2.2,0.5,2.8,1.6V288z M200.3,295.7c0.7,0,1.2-0.3,1.8-0.8
		c0.5-0.5,0.8-1.3,0.8-2.3c0-1.2-0.2-2-0.7-2.6c-0.5-0.6-1.1-0.8-1.7-0.8c-0.8,0-1.4,0.3-1.9,0.9c-0.5,0.6-0.7,1.4-0.7,2.4
		c0,1,0.3,1.8,0.8,2.3S199.7,295.7,200.3,295.7z"/>
	<path class="st6" d="M212.6,288v1.4c0.6-1,1.6-1.5,2.8-1.5c1.2,0,2.2,0.4,2.9,1.3s1,2,1,3.3c0,1.4-0.4,2.6-1.1,3.4
		c-0.7,0.9-1.7,1.3-2.8,1.3c-1.2,0-2.1-0.5-2.8-1.5v4.9h-1.4V288H212.6z M215.2,296c0.8,0,1.4-0.3,1.9-0.9c0.5-0.6,0.7-1.5,0.7-2.6
		c0-1-0.2-1.8-0.7-2.4c-0.5-0.6-1.1-0.9-1.8-0.9s-1.4,0.3-1.9,0.8c-0.5,0.5-0.8,1.4-0.8,2.6c0,1.2,0.3,2,0.8,2.6
		C213.9,295.7,214.5,296,215.2,296z"/>
	<path class="st6" d="M222.8,288v1.6c0.5-1.1,1.3-1.7,2.5-1.7c0.2,0,0.4,0,0.5,0v1.4c-0.3-0.1-0.5-0.1-0.8-0.1
		c-0.6,0-1.2,0.3-1.6,0.9c-0.4,0.6-0.6,1.3-0.6,2v5h-1.4l0-9.1H222.8z"/>
	<path class="st6" d="M233.9,295.4v1.3c-0.7,0.4-1.6,0.6-2.6,0.6c-1.4,0-2.5-0.4-3.3-1.3c-0.8-0.8-1.3-2-1.3-3.4
		c0-1.5,0.4-2.6,1.1-3.4c0.8-0.8,1.7-1.3,2.9-1.3c1.1,0,2,0.4,2.7,1.1c0.7,0.7,1,1.8,1,3.1c0,0.4,0,0.7-0.1,1.1h-6.2
		c0.1,0.9,0.5,1.6,1,2.1c0.6,0.5,1.3,0.7,2.3,0.7C232.5,296,233.3,295.8,233.9,295.4z M233,292v-0.4c0-0.8-0.2-1.4-0.6-1.8
		c-0.4-0.4-1-0.7-1.7-0.7c-0.7,0-1.3,0.2-1.7,0.7c-0.5,0.5-0.8,1.2-0.8,2.1H233z"/>
	<path class="st6" d="M241.6,288.3v1.4c-0.6-0.3-1.3-0.5-2.3-0.5c-0.5,0-0.9,0.1-1.1,0.3c-0.3,0.2-0.4,0.5-0.4,0.9
		c0,0.2,0,0.4,0.1,0.6c0.1,0.2,0.2,0.3,0.5,0.5c0.2,0.2,0.4,0.3,0.5,0.3c0.1,0.1,0.4,0.2,0.7,0.3c0.8,0.3,1.4,0.7,1.8,1.1
		c0.4,0.4,0.6,0.9,0.6,1.6c0,0.8-0.3,1.4-0.8,1.9s-1.3,0.7-2.2,0.7c-1.1,0-2-0.2-2.7-0.6v-1.4c0.8,0.5,1.7,0.7,2.6,0.7
		c0.6,0,1-0.1,1.3-0.3c0.3-0.2,0.4-0.5,0.4-0.9c0-0.4-0.2-0.8-0.5-1c-0.3-0.2-0.8-0.5-1.6-0.8c-0.7-0.3-1.2-0.6-1.6-1
		c-0.4-0.4-0.6-0.9-0.6-1.6c0-0.8,0.3-1.4,0.9-1.8s1.3-0.7,2.1-0.7C240.2,287.9,241,288.1,241.6,288.3z"/>
	<path class="st6" d="M249,288.3v1.4c-0.6-0.3-1.3-0.5-2.3-0.5c-0.5,0-0.9,0.1-1.1,0.3c-0.3,0.2-0.4,0.5-0.4,0.9
		c0,0.2,0,0.4,0.1,0.6c0.1,0.2,0.2,0.3,0.5,0.5c0.2,0.2,0.4,0.3,0.5,0.3c0.1,0.1,0.4,0.2,0.7,0.3c0.8,0.3,1.4,0.7,1.8,1.1
		c0.4,0.4,0.6,0.9,0.6,1.6c0,0.8-0.3,1.4-0.8,1.9s-1.3,0.7-2.2,0.7c-1.1,0-2-0.2-2.7-0.6v-1.4c0.8,0.5,1.7,0.7,2.6,0.7
		c0.6,0,1-0.1,1.3-0.3c0.3-0.2,0.4-0.5,0.4-0.9c0-0.4-0.2-0.8-0.5-1c-0.3-0.2-0.8-0.5-1.6-0.8c-0.7-0.3-1.2-0.6-1.6-1
		c-0.4-0.4-0.6-0.9-0.6-1.6c0-0.8,0.3-1.4,0.9-1.8s1.3-0.7,2.1-0.7C247.7,287.9,248.4,288.1,249,288.3z"/>
	<path class="st6" d="M257.8,289.2v5.3c0,1,0.5,1.5,1.4,1.5c0.5,0,0.9-0.1,1.2-0.4v1.3c-0.4,0.2-0.8,0.3-1.3,0.3
		c-1.8,0-2.7-0.9-2.7-2.8v-5.3h-1.5V288h1.5v-2.3h1.4v2.3h2.5v1.2H257.8z"/>
	<path class="st6" d="M263.9,284.4v5.2c0.5-1.1,1.5-1.7,2.9-1.7c0.9,0,1.6,0.3,2.1,0.8c0.5,0.5,0.8,1.3,0.8,2.2v6.2h-1.4v-5.9
		c0-0.7-0.2-1.2-0.5-1.5c-0.3-0.4-0.8-0.5-1.3-0.5c-0.7,0-1.3,0.3-1.8,0.8c-0.5,0.5-0.8,1.3-0.8,2.2v5h-1.4v-12.7H263.9z"/>
	<path class="st6" d="M278.9,295.4v1.3c-0.7,0.4-1.6,0.6-2.6,0.6c-1.4,0-2.5-0.4-3.3-1.3c-0.8-0.8-1.3-2-1.3-3.4
		c0-1.5,0.4-2.6,1.1-3.4c0.8-0.8,1.7-1.3,2.9-1.3c1.1,0,2,0.4,2.7,1.1c0.7,0.7,1,1.8,1,3.1c0,0.4,0,0.7-0.1,1.1h-6.2
		c0.1,0.9,0.5,1.6,1,2.1c0.6,0.5,1.3,0.7,2.3,0.7C277.4,296,278.3,295.8,278.9,295.4z M278,292v-0.4c0-0.8-0.2-1.4-0.6-1.8
		c-0.4-0.4-1-0.7-1.7-0.7c-0.7,0-1.3,0.2-1.7,0.7c-0.5,0.5-0.8,1.2-0.8,2.1H278z"/>
	<path class="st6" d="M292.1,284.4h1.4v12.7h-1.4v-1.3c-0.6,1-1.6,1.5-2.8,1.5c-1.2,0-2.2-0.4-2.9-1.3c-0.7-0.9-1-2-1-3.3
		c0-1.4,0.4-2.6,1.1-3.5s1.7-1.3,2.8-1.3c1.2,0,2.1,0.5,2.8,1.5V284.4z M289.5,296c0.7,0,1.4-0.3,1.9-0.8c0.5-0.6,0.8-1.4,0.8-2.6
		c0-1.2-0.3-2-0.8-2.5s-1.1-0.8-1.8-0.8c-0.8,0-1.4,0.3-1.9,0.9c-0.5,0.6-0.7,1.5-0.7,2.6c0,1,0.2,1.8,0.7,2.4
		C288.1,295.7,288.7,296,289.5,296z"/>
	<path class="st6" d="M299.9,297.3c-1.3,0-2.3-0.4-3.1-1.3c-0.8-0.9-1.1-2-1.1-3.3c0-1.4,0.4-2.5,1.2-3.4c0.8-0.9,1.8-1.4,3.1-1.4
		c1.4,0,2.4,0.4,3.2,1.3s1.1,2,1.1,3.4c0,1.4-0.4,2.5-1.2,3.4S301.2,297.3,299.9,297.3z M299.9,289.2c-0.9,0-1.5,0.3-2,1
		c-0.5,0.7-0.7,1.5-0.7,2.5c0,0.9,0.3,1.8,0.8,2.4s1.2,1,2,1c0.9,0,1.6-0.3,2.1-1c0.5-0.7,0.7-1.5,0.7-2.4c0-1-0.2-1.8-0.7-2.5
		C301.6,289.5,300.9,289.2,299.9,289.2z"/>
	<path class="st6" d="M308.3,297.2l-2.8-9.1h1.5l0.9,3c0.3,1.1,0.6,2,0.8,2.8s0.3,1.3,0.4,1.6l0.1,0.4c0.2-0.8,0.6-2.3,1.3-4.7
		l0.9-3h1.5l0.9,3l1.3,4.8c0.2-0.7,0.6-2.3,1.4-4.8l0.9-3h1.5l-2.9,9.1h-1.7l-0.9-3l-1.3-4.6c-0.2,0.8-0.6,2.3-1.2,4.6l-0.8,3H308.3
		z"/>
	<path class="st6" d="M322,288v1.6c0.5-1.1,1.5-1.7,2.9-1.7c0.9,0,1.6,0.3,2.1,0.8c0.5,0.5,0.8,1.3,0.8,2.2v6.3h-1.4v-5.9
		c0-0.7-0.2-1.2-0.5-1.5c-0.3-0.4-0.8-0.5-1.3-0.5c-0.7,0-1.3,0.3-1.8,0.8c-0.5,0.5-0.7,1.3-0.7,2.2v5h-1.4V288H322z"/>
	<path class="st6" d="M330.4,297.2v-12.7h1.4v12.7H330.4z"/>
	<path class="st6" d="M338.2,297.3c-1.3,0-2.3-0.4-3.1-1.3c-0.8-0.9-1.1-2-1.1-3.3c0-1.4,0.4-2.5,1.2-3.4c0.8-0.9,1.8-1.4,3.1-1.4
		c1.4,0,2.4,0.4,3.2,1.3s1.1,2,1.1,3.4c0,1.4-0.4,2.5-1.2,3.4C340.6,296.9,339.5,297.3,338.2,297.3z M338.2,289.2
		c-0.9,0-1.5,0.3-2,1c-0.5,0.7-0.7,1.5-0.7,2.5c0,0.9,0.3,1.8,0.8,2.4s1.2,1,2,1c0.9,0,1.6-0.3,2.1-1c0.5-0.7,0.7-1.5,0.7-2.4
		c0-1-0.2-1.8-0.7-2.5C339.9,289.5,339.1,289.2,338.2,289.2z"/>
	<path class="st6" d="M344.8,289.9v-1.4c0.7-0.4,1.6-0.6,2.7-0.6c2.3,0,3.4,1.2,3.4,3.5v5.8h-1.4v-1.1c-0.5,0.8-1.3,1.2-2.6,1.2
		c-0.9,0-1.5-0.3-2.1-0.8c-0.5-0.5-0.8-1.1-0.8-1.9c0-0.9,0.3-1.6,1-2c0.7-0.5,1.6-0.7,2.7-0.7h1.7v-0.5c0-0.7-0.2-1.3-0.5-1.6
		c-0.3-0.4-0.9-0.5-1.6-0.5C346.4,289.2,345.6,289.4,344.8,289.9z M349.5,292.9h-1.6c-0.8,0-1.3,0.2-1.7,0.5s-0.6,0.7-0.6,1.1
		s0.2,0.8,0.5,1.1c0.3,0.3,0.7,0.4,1.3,0.4c0.6,0,1.2-0.2,1.5-0.5c0.4-0.4,0.6-0.8,0.6-1.4V292.9z"/>
	<path class="st6" d="M359.6,284.4h1.4v12.7h-1.4v-1.3c-0.6,1-1.6,1.5-2.8,1.5c-1.2,0-2.2-0.4-2.9-1.3s-1-2-1-3.3
		c0-1.4,0.4-2.6,1.1-3.5c0.7-0.9,1.7-1.3,2.8-1.3c1.2,0,2.1,0.5,2.8,1.5V284.4z M356.9,296c0.7,0,1.4-0.3,1.9-0.8
		c0.5-0.6,0.8-1.4,0.8-2.6c0-1.2-0.3-2-0.8-2.5s-1.1-0.8-1.8-0.8c-0.8,0-1.4,0.3-1.9,0.9c-0.5,0.6-0.7,1.5-0.7,2.6
		c0,1,0.2,1.8,0.7,2.4C355.6,295.7,356.2,296,356.9,296z"/>
	<path class="st6" d="M368.1,285h3.2c1.4,0,2.5,0.4,3.3,1.1c0.8,0.7,1.2,1.7,1.2,2.8c0,1.1-0.4,2-1.2,2.7c-0.8,0.7-1.9,1.1-3.2,1.1
		h-1.9v4.5h-1.5V285z M369.6,291.5h1.9c0.9,0,1.6-0.2,2.1-0.7c0.5-0.5,0.8-1.1,0.8-1.8c0-0.8-0.3-1.5-0.8-1.9
		c-0.5-0.5-1.3-0.7-2.3-0.7h-1.7V291.5z"/>
	<path class="st6" d="M377.9,285h3.6c1.8,0,3.3,0.6,4.4,1.7c1.1,1.1,1.7,2.5,1.7,4.3c0,1.8-0.5,3.2-1.6,4.4
		c-1.1,1.2-2.5,1.8-4.5,1.8h-3.7V285z M379.4,295.9h2.2c1.5,0,2.6-0.5,3.4-1.4c0.8-0.9,1.2-2.1,1.2-3.5c0-1.3-0.4-2.4-1.3-3.3
		c-0.9-0.9-2-1.3-3.3-1.3h-2.1V295.9z"/>
	<path class="st6" d="M396.5,286.3h-5.2v4.3h4.6v1.3h-4.6v5.3h-1.5V285h6.7V286.3z"/>
	<path class="st6" d="M403.1,285.8c-0.2-0.2-0.3-0.4-0.3-0.7c0-0.3,0.1-0.5,0.3-0.7c0.2-0.2,0.4-0.3,0.7-0.3c0.3,0,0.5,0.1,0.7,0.3
		c0.2,0.2,0.3,0.4,0.3,0.7c0,0.3-0.1,0.5-0.3,0.7s-0.4,0.3-0.7,0.3C403.5,286.1,403.2,286,403.1,285.8z M403,297.2V288h1.4v9.1H403z
		"/>
	<path class="st6" d="M408.1,292.6c0,1,0.3,1.8,0.9,2.5c0.6,0.7,1.4,1,2.5,1c0.7,0,1.3-0.2,1.9-0.6v1.3c-0.6,0.3-1.3,0.5-2.1,0.5
		c-1.4,0-2.6-0.5-3.4-1.4c-0.8-0.9-1.3-2-1.3-3.4c0-1.3,0.4-2.4,1.3-3.3c0.8-0.9,2-1.4,3.5-1.4c0.8,0,1.5,0.2,2.1,0.5v1.4
		c-0.6-0.4-1.2-0.6-1.9-0.6c-1,0-1.9,0.3-2.5,1S408.1,291.7,408.1,292.6z"/>
	<path class="st6" d="M419.3,297.3c-1.3,0-2.3-0.4-3.1-1.3c-0.8-0.9-1.1-2-1.1-3.3c0-1.4,0.4-2.5,1.2-3.4c0.8-0.9,1.8-1.4,3.1-1.4
		c1.4,0,2.4,0.4,3.2,1.3s1.1,2,1.1,3.4c0,1.4-0.4,2.5-1.2,3.4C421.7,296.9,420.7,297.3,419.3,297.3z M419.3,289.2
		c-0.9,0-1.5,0.3-2,1c-0.5,0.7-0.7,1.5-0.7,2.5c0,0.9,0.3,1.8,0.8,2.4s1.2,1,2,1c0.9,0,1.6-0.3,2.1-1c0.5-0.7,0.7-1.5,0.7-2.4
		c0-1-0.2-1.8-0.7-2.5C421,289.5,420.3,289.2,419.3,289.2z"/>
	<path class="st6" d="M427.1,288v1.6c0.5-1.1,1.5-1.7,2.9-1.7c0.9,0,1.6,0.3,2.1,0.8c0.5,0.5,0.8,1.3,0.8,2.2v6.3h-1.4v-5.9
		c0-0.7-0.2-1.2-0.5-1.5c-0.3-0.4-0.8-0.5-1.3-0.5c-0.7,0-1.3,0.3-1.8,0.8c-0.5,0.5-0.7,1.3-0.7,2.2v5h-1.4V288H427.1z"/>
	<path class="st6" d="M441.8,289.2v5.3c0,1,0.5,1.5,1.4,1.5c0.5,0,0.9-0.1,1.2-0.4v1.3c-0.4,0.2-0.8,0.3-1.3,0.3
		c-1.8,0-2.7-0.9-2.7-2.8v-5.3h-1.5V288h1.5v-2.3h1.4v2.3h2.5v1.2H441.8z"/>
	<path class="st6" d="M450.2,297.3c-1.3,0-2.3-0.4-3.1-1.3c-0.8-0.9-1.1-2-1.1-3.3c0-1.4,0.4-2.5,1.2-3.4c0.8-0.9,1.8-1.4,3.1-1.4
		c1.4,0,2.4,0.4,3.2,1.3s1.1,2,1.1,3.4c0,1.4-0.4,2.5-1.2,3.4C452.6,296.9,451.5,297.3,450.2,297.3z M450.2,289.2
		c-0.9,0-1.5,0.3-2,1c-0.5,0.7-0.7,1.5-0.7,2.5c0,0.9,0.3,1.8,0.8,2.4s1.2,1,2,1c0.9,0,1.6-0.3,2.1-1c0.5-0.7,0.7-1.5,0.7-2.4
		c0-1-0.2-1.8-0.7-2.5C451.9,289.5,451.2,289.2,450.2,289.2z"/>
	<path class="st6" d="M461.9,292.6c0,1,0.3,1.8,0.9,2.5c0.6,0.7,1.4,1,2.5,1c0.7,0,1.3-0.2,1.9-0.6v1.3c-0.6,0.3-1.3,0.5-2.1,0.5
		c-1.4,0-2.6-0.5-3.4-1.4c-0.8-0.9-1.3-2-1.3-3.4c0-1.3,0.4-2.4,1.3-3.3c0.8-0.9,2-1.4,3.5-1.4c0.8,0,1.5,0.2,2.1,0.5v1.4
		c-0.6-0.4-1.2-0.6-1.9-0.6c-1,0-1.9,0.3-2.5,1S461.9,291.7,461.9,292.6z"/>
	<path class="st6" d="M470.9,288v1.6c0.5-1.1,1.3-1.7,2.5-1.7c0.2,0,0.4,0,0.5,0v1.4c-0.3-0.1-0.5-0.1-0.8-0.1
		c-0.6,0-1.2,0.3-1.6,0.9c-0.4,0.6-0.6,1.3-0.6,2v5h-1.4l0-9.1H470.9z"/>
	<path class="st6" d="M482,295.4v1.3c-0.7,0.4-1.6,0.6-2.6,0.6c-1.4,0-2.5-0.4-3.3-1.3c-0.8-0.8-1.3-2-1.3-3.4
		c0-1.5,0.4-2.6,1.1-3.4c0.8-0.8,1.7-1.3,2.9-1.3c1.1,0,2,0.4,2.7,1.1c0.7,0.7,1,1.8,1,3.1c0,0.4,0,0.7-0.1,1.1h-6.2
		c0.1,0.9,0.5,1.6,1,2.1c0.6,0.5,1.3,0.7,2.3,0.7C480.6,296,481.4,295.8,482,295.4z M481.2,292v-0.4c0-0.8-0.2-1.4-0.6-1.8
		c-0.4-0.4-1-0.7-1.7-0.7c-0.7,0-1.3,0.2-1.7,0.7c-0.5,0.5-0.8,1.2-0.8,2.1H481.2z"/>
	<path class="st6" d="M484.9,289.9v-1.4c0.7-0.4,1.6-0.6,2.7-0.6c2.3,0,3.4,1.2,3.4,3.5v5.8h-1.4v-1.1c-0.5,0.8-1.3,1.2-2.6,1.2
		c-0.9,0-1.5-0.3-2.1-0.8c-0.5-0.5-0.8-1.1-0.8-1.9c0-0.9,0.3-1.6,1-2c0.7-0.5,1.6-0.7,2.7-0.7h1.7v-0.5c0-0.7-0.2-1.3-0.5-1.6
		c-0.3-0.4-0.9-0.5-1.6-0.5C486.6,289.2,485.7,289.4,484.9,289.9z M489.7,292.9h-1.6c-0.8,0-1.3,0.2-1.7,0.5s-0.6,0.7-0.6,1.1
		s0.2,0.8,0.5,1.1c0.3,0.3,0.7,0.4,1.3,0.4c0.6,0,1.2-0.2,1.5-0.5c0.4-0.4,0.6-0.8,0.6-1.4V292.9z"/>
	<path class="st6" d="M495.6,289.2v5.3c0,1,0.5,1.5,1.4,1.5c0.5,0,0.9-0.1,1.2-0.4v1.3c-0.4,0.2-0.8,0.3-1.3,0.3
		c-1.8,0-2.7-0.9-2.7-2.8v-5.3h-1.5V288h1.5v-2.3h1.4v2.3h2.5v1.2H495.6z"/>
	<path class="st6" d="M506.9,295.4v1.3c-0.7,0.4-1.6,0.6-2.6,0.6c-1.4,0-2.5-0.4-3.3-1.3c-0.8-0.8-1.3-2-1.3-3.4
		c0-1.5,0.4-2.6,1.1-3.4c0.8-0.8,1.7-1.3,2.9-1.3c1.1,0,2,0.4,2.7,1.1c0.7,0.7,1,1.8,1,3.1c0,0.4,0,0.7-0.1,1.1h-6.2
		c0.1,0.9,0.5,1.6,1,2.1c0.6,0.5,1.3,0.7,2.3,0.7C505.5,296,506.3,295.8,506.9,295.4z M506.1,292v-0.4c0-0.8-0.2-1.4-0.6-1.8
		c-0.4-0.4-1-0.7-1.7-0.7c-0.7,0-1.3,0.2-1.7,0.7c-0.5,0.5-0.8,1.2-0.8,2.1H506.1z"/>
	<path class="st6" d="M516,289.2v5.3c0,1,0.5,1.5,1.4,1.5c0.5,0,0.9-0.1,1.2-0.4v1.3c-0.4,0.2-0.8,0.3-1.3,0.3
		c-1.8,0-2.7-0.9-2.7-2.8v-5.3h-1.5V288h1.5v-2.3h1.4v2.3h2.5v1.2H516z"/>
	<path class="st6" d="M522.1,284.4v5.2c0.5-1.1,1.5-1.7,2.9-1.7c0.9,0,1.6,0.3,2.1,0.8s0.8,1.3,0.8,2.2v6.2h-1.4v-5.9
		c0-0.7-0.2-1.2-0.5-1.5c-0.3-0.4-0.8-0.5-1.3-0.5c-0.7,0-1.3,0.3-1.8,0.8c-0.5,0.5-0.8,1.3-0.8,2.2v5h-1.4v-12.7H522.1z"/>
	<path class="st6" d="M537,295.4v1.3c-0.7,0.4-1.6,0.6-2.6,0.6c-1.4,0-2.5-0.4-3.3-1.3c-0.8-0.8-1.3-2-1.3-3.4
		c0-1.5,0.4-2.6,1.1-3.4s1.7-1.3,2.9-1.3c1.1,0,2,0.4,2.7,1.1c0.7,0.7,1,1.8,1,3.1c0,0.4,0,0.7-0.1,1.1h-6.2c0.1,0.9,0.5,1.6,1,2.1
		c0.6,0.5,1.3,0.7,2.3,0.7C535.6,296,536.4,295.8,537,295.4z M536.2,292v-0.4c0-0.8-0.2-1.4-0.6-1.8c-0.4-0.4-1-0.7-1.7-0.7
		c-0.7,0-1.3,0.2-1.7,0.7s-0.8,1.2-0.8,2.1H536.2z"/>
	<path class="st6" d="M550.9,288v9.1h-1.4v-8h-3.1v8H545v-8h-1.6V288h1.6v-0.8c0-0.9,0.2-1.6,0.7-2.1c0.5-0.5,1.2-0.8,2-0.8
		c0.9,0,1.7,0.2,2.5,0.6v1.3c-0.8-0.4-1.7-0.6-2.4-0.6c-0.9,0-1.4,0.5-1.4,1.6v0.8H550.9z"/>
	<path class="st6" d="M553.5,297.2v-12.7h1.4v12.7H553.5z"/>
	<path class="st6" d="M564.3,295.4v1.3c-0.7,0.4-1.6,0.6-2.6,0.6c-1.4,0-2.5-0.4-3.3-1.3c-0.8-0.8-1.3-2-1.3-3.4
		c0-1.5,0.4-2.6,1.1-3.4s1.7-1.3,2.9-1.3c1.1,0,2,0.4,2.7,1.1c0.7,0.7,1,1.8,1,3.1c0,0.4,0,0.7-0.1,1.1h-6.2c0.1,0.9,0.5,1.6,1,2.1
		c0.6,0.5,1.3,0.7,2.3,0.7C562.9,296,563.7,295.8,564.3,295.4z M563.4,292v-0.4c0-0.8-0.2-1.4-0.6-1.8c-0.4-0.4-1-0.7-1.7-0.7
		c-0.7,0-1.3,0.2-1.7,0.7s-0.8,1.2-0.8,2.1H563.4z"/>
	<path class="st6" d="M566.4,297c-0.2-0.2-0.3-0.5-0.3-0.8s0.1-0.6,0.3-0.8s0.5-0.3,0.8-0.3s0.6,0.1,0.8,0.3s0.3,0.5,0.3,0.8
		s-0.1,0.6-0.3,0.8s-0.5,0.3-0.8,0.3S566.6,297.2,566.4,297z"/>
</g>
<polygon class="st7" points="151.5,69.4 151.5,133.5 77.5,133.5 77.5,47.5 127.8,47.5 "/>
<rect x="106.5" y="86.5" class="st8" width="15" height="10"/>
<rect x="126.5" y="86.5" class="st8" width="15" height="10"/>
<rect x="48.5" y="71.5" class="st8" width="15" height="10"/>
<rect x="106.5" y="71.5" class="st8" width="15" height="10"/>
<rect x="68.5" y="86.5" class="st8" width="15" height="10"/>
<rect x="86.5" y="101.5" class="st8" width="15" height="10"/>
<rect x="126.5" y="101.5" class="st8" width="15" height="10"/>
<text transform="matrix(1 0 0 1 144.01 52.78)" class="st9 st2 st10">2</text>
<g class="st5">
	<path class="st11" d="M153.1,51.3v1.5h-8.5c0-0.4,0-0.7,0.2-1.1c0.2-0.6,0.6-1.2,1-1.7s1.2-1.2,2.1-2c1.4-1.1,2.3-2.1,2.8-2.7
		s0.7-1.3,0.7-1.9c0-0.6-0.2-1.2-0.7-1.6c-0.4-0.4-1-0.6-1.8-0.6c-0.8,0-1.4,0.2-1.8,0.7s-0.7,1.1-0.7,1.9l-1.6-0.2
		c0.1-1.2,0.5-2.1,1.3-2.8c0.7-0.6,1.7-1,2.9-1c1.2,0,2.2,0.3,2.9,1s1.1,1.5,1.1,2.5c0,0.5-0.1,1-0.3,1.5s-0.6,1-1,1.6
		s-1.3,1.3-2.4,2.3c-0.9,0.8-1.6,1.3-1.8,1.6s-0.5,0.6-0.7,0.9H153.1z"/>
</g>
</svg>
