<?xml version="1.0" encoding="utf-8"?>
<!-- Generator: Adobe Illustrator 22.1.0, SVG Export Plug-In . SVG Version: 6.00 Build 0)  -->
<svg version="1.1" id="Layer_1" xmlns="http://www.w3.org/2000/svg" xmlns:xlink="http://www.w3.org/1999/xlink" x="0px" y="0px"
	 viewBox="0 0 34 30.3" style="enable-background:new 0 0 34 30.3;" xml:space="preserve">
<style type="text/css">
	.st0{fill:#313435;stroke:#313435;stroke-miterlimit:10;}
</style>
<title>Previous_dark</title>
<g id="Layer_2_1_">
	<g id="Layer_1-2">
		<path class="st0" d="M4.6,16.2L9,20.7l2.5,2.5c1.5,1.5,3,3,4.5,4.5c0.4,0.4,0.5,1,0.2,1.4c-0.1,0.1-0.1,0.2-0.2,0.3
			c-0.2,0.3-0.6,0.4-0.9,0.3c-0.3-0.1-0.5-0.2-0.7-0.3c-4.5-4.4-9-8.9-13.5-13.5c-0.4-0.4-0.4-1.1,0-1.5l6.7-6.7l6.9-6.9
			c0.2-0.2,0.5-0.3,0.7-0.3c0.4,0,0.7,0.2,1,0.5c0.5,0.5,0.6,1.3,0.2,1.9c-0.4,0.4-0.7,0.7-1.1,1.1c-0.6,0.6-1.4,1.2-2,1.8l-8.5,8.2
			"/>
		<path class="st0" d="M4.7,13.9c3.7,0,23.8,0,27.5,0c0.5,0,1,0.2,1.2,0.6c0.2,0.4,0.2,0.8,0,1.2c-0.1,0.1-0.2,0.2-0.3,0.3
			c-0.2,0.2-0.5,0.3-0.8,0.3c-4.3,0-23.4-0.1-27.8-0.1"/>
	</g>
</g>
</svg>
