<?xml version="1.0" encoding="utf-8"?>
<!-- Generator: Adobe Illustrator 22.1.0, SVG Export Plug-In . SVG Version: 6.00 Build 0)  -->
<svg version="1.1" id="Layer_1" xmlns="http://www.w3.org/2000/svg" xmlns:xlink="http://www.w3.org/1999/xlink" x="0px" y="0px"
	 viewBox="0 0 33 29.3" style="enable-background:new 0 0 33 29.3;" xml:space="preserve">
<style type="text/css">
	.st0{fill:#72777A;}
</style>
<title>Previous_light</title>
<g id="Layer_2_1_">
	<g id="Layer_1-2">
		<path class="st0" d="M32.6,15.6c-0.2,0.2-0.5,0.3-0.8,0.3H14h-2.9H9.9l-5.8-0.2l4.5,4.5l2.5,2.6c1.5,1.5,3,3,4.5,4.5
			c0.4,0.4,0.5,1,0.2,1.4c-0.1,0.1-0.1,0.2-0.2,0.3c-0.2,0.3-0.6,0.4-0.9,0.3c-0.3-0.1-0.5-0.2-0.7-0.3C9.3,24.5,4.9,20,0.3,15.4
			c-0.4-0.4-0.4-1.1,0-1.5L7,7.2l6.9-6.9C14.1,0.1,14.4,0,14.6,0c0.4,0,0.7,0.2,1,0.5c0.5,0.5,0.6,1.3,0.2,1.9
			c-0.4,0.4-0.7,0.7-1.1,1.1c-0.6,0.6-1.4,1.2-2,1.8l-8,8l6.6,0.2c0.2,0,0.3,0,0.5,0h8.9h11c0.5,0,1,0.2,1.2,0.6
			c0.2,0.4,0.2,0.8,0,1.2C32.8,15.4,32.7,15.5,32.6,15.6z"/>
	</g>
</g>
</svg>
